<svg width="38" height="32" viewBox="0 0 38 32" fill="none" xmlns="http://www.w3.org/2000/svg">
<path d="M19 31.795C17.25 31.795 15.5519 31.4521 13.9531 30.7758C12.4091 30.1228 11.0226 29.188 9.83206 27.9975C8.64155 26.807 7.70676 25.4204 7.05372 23.8764C6.37746 22.2776 6.03458 20.5796 6.03458 18.8295C6.03458 17.0795 6.37746 15.3814 7.05372 13.7826C7.70676 12.2387 8.64152 10.8521 9.83206 9.66159C11.0226 8.47105 12.4091 7.53629 13.9531 6.88325C15.5519 6.20699 17.25 5.86411 19 5.86411C20.7501 5.86411 22.4481 6.20699 24.0469 6.88325C25.5909 7.53629 26.9775 8.47105 28.168 9.66159C29.3585 10.8521 30.2933 12.2387 30.9463 13.7826C31.6225 15.3815 31.9655 17.0795 31.9655 18.8295C31.9655 20.5796 31.6226 22.2776 30.9463 23.8764C30.2932 25.4204 29.3585 26.807 28.168 27.9975C26.9775 29.188 25.5909 30.1228 24.0469 30.7758C22.4481 31.4521 20.7501 31.795 19 31.795ZM19 7.04277C12.5008 7.04277 7.21324 12.3303 7.21324 18.8295C7.21324 25.3288 12.5008 30.6163 19 30.6163C25.4993 30.6163 30.7868 25.3288 30.7868 18.8295C30.7868 12.3303 25.4993 7.04277 19 7.04277Z" fill="#0B132B"/>
<path d="M19 28.2589C17.111 28.2589 15.335 27.5233 13.9993 26.1875C12.6636 24.8518 11.9279 23.0758 11.9279 21.1868C11.9279 20.882 12.1604 20.6275 12.4639 20.5999C16.801 20.2056 21.1991 20.2056 25.5361 20.5999C25.8396 20.6275 26.0721 20.882 26.0721 21.1868C26.0721 23.0758 25.3364 24.8518 24.0007 26.1875C22.665 27.5233 20.889 28.2589 19 28.2589ZM13.1307 21.7251C13.254 23.0961 13.8475 24.3688 14.8327 25.3541C15.9459 26.4672 17.4258 27.0802 19 27.0802C22.0682 27.0802 24.5962 24.7233 24.869 21.7251C20.9716 21.4022 17.0282 21.4022 13.1307 21.7251Z" fill="#0B132B"/>
<path d="M14.8746 17.6507C13.2498 17.6507 11.9279 16.3288 11.9279 14.704C11.9279 14.3785 12.1918 14.1147 12.5173 14.1147C12.8427 14.1147 13.1066 14.3785 13.1066 14.704C13.1066 15.6789 13.8997 16.472 14.8746 16.472C15.8495 16.472 16.6426 15.6789 16.6426 14.704C16.6426 14.3785 16.9065 14.1147 17.232 14.1147C17.5574 14.1147 17.8213 14.3785 17.8213 14.704C17.8213 16.3288 16.4994 17.6507 14.8746 17.6507Z" fill="#0B132B"/>
<path d="M23.1253 17.6505C21.5005 17.6505 20.1786 16.3286 20.1786 14.7038C20.1786 14.3783 20.4425 14.1145 20.768 14.1145C21.0934 14.1145 21.3573 14.3783 21.3573 14.7038C21.3573 15.6787 22.1504 16.4718 23.1253 16.4718C24.1002 16.4718 24.8934 15.6787 24.8934 14.7038C24.8934 14.3783 25.1572 14.1145 25.4827 14.1145C25.8082 14.1145 26.072 14.3783 26.072 14.7038C26.072 16.3286 24.7501 17.6505 23.1253 17.6505Z" fill="#0B132B"/>
<path d="M36.6801 19.4189H33.7334C33.408 19.4189 33.1441 19.155 33.1441 18.8295C33.1441 11.0304 26.7991 4.68539 19 4.68539C11.2009 4.68539 4.85583 11.0304 4.85583 18.8295C4.85583 19.155 4.59197 19.4189 4.2665 19.4189H1.3198C1.16349 19.4189 1.0136 19.3568 0.903078 19.2462C0.792557 19.1357 0.730469 18.9858 0.730469 18.8295C0.730469 16.3634 1.21359 13.9708 2.16641 11.718C3.08659 9.54243 4.40383 7.58869 6.08148 5.91104C7.75913 4.23339 9.71287 2.91617 11.8885 1.99597C14.1412 1.04315 16.5339 0.560028 19 0.560028C21.4661 0.560028 23.8587 1.04315 26.1115 1.99597C28.2871 2.91615 30.2408 4.23339 31.9185 5.91104C33.5961 7.58869 34.9133 9.54243 35.8335 11.718C36.7863 13.9708 37.2695 16.3634 37.2695 18.8295C37.2695 19.155 37.0056 19.4189 36.6801 19.4189ZM34.3117 18.2402H36.0807C35.769 9.08812 28.2266 1.73872 19 1.73872C9.77334 1.73872 2.23092 9.08815 1.91918 18.2402H3.68818C3.75795 16.38 4.15852 14.5744 4.88154 12.865C5.65334 11.0403 6.75807 9.40168 8.1651 7.99466C9.57214 6.58765 11.2108 5.48289 13.0354 4.7111C14.9249 3.91193 16.9317 3.50672 19 3.50672C21.0683 3.50672 23.075 3.91193 24.9645 4.7111C26.7892 5.48289 28.4278 6.58763 29.8348 7.99466C31.2419 9.4017 32.3466 11.0403 33.1184 12.865C33.8414 14.5744 34.242 16.38 34.3117 18.2402Z" fill="#0B132B"/>
<path d="M19 4.68539C18.6745 4.68539 18.4107 4.42153 18.4107 4.09606V1.14936C18.4107 0.823889 18.6745 0.560028 19 0.560028C19.3255 0.560028 19.5893 0.823889 19.5893 1.14936V4.09606C19.5893 4.42153 19.3255 4.68539 19 4.68539Z" fill="#0B132B"/>
<path d="M13.3619 5.80709C13.1307 5.80709 12.9113 5.67009 12.8172 5.44312L11.6896 2.72073C11.565 2.42002 11.7078 2.07528 12.0085 1.95073C12.3092 1.82622 12.654 1.96897 12.7785 2.26968L13.9062 4.99207C14.0307 5.29278 13.8879 5.63752 13.5872 5.7621C13.5135 5.79262 13.4371 5.80709 13.3619 5.80709Z" fill="#0B132B"/>
<path d="M8.58187 9.00057C8.43105 9.00057 8.28023 8.94303 8.16515 8.82796L6.08152 6.74433C5.85137 6.51418 5.85137 6.14104 6.08152 5.91089C6.31167 5.68076 6.68482 5.68076 6.91497 5.91089L8.9986 7.99451C9.22875 8.22466 9.22875 8.59781 8.9986 8.82796C8.88351 8.94303 8.73269 9.00057 8.58187 9.00057Z" fill="#0B132B"/>
<path d="M5.38786 13.7807C5.31269 13.7807 5.23633 13.7663 5.16256 13.7357L2.44017 12.608C2.13946 12.4835 1.99666 12.1387 2.12122 11.838C2.2458 11.5373 2.59054 11.3945 2.89122 11.5191L5.61362 12.6468C5.91432 12.7713 6.05713 13.1161 5.93257 13.4168C5.83856 13.6437 5.61911 13.7807 5.38786 13.7807Z" fill="#0B132B"/>
<path d="M32.6122 13.7807C32.3809 13.7807 32.1615 13.6437 32.0675 13.4168C31.9429 13.1161 32.0857 12.7713 32.3864 12.6468L35.1088 11.5191C35.4095 11.3945 35.7543 11.5374 35.8788 11.838C36.0033 12.1388 35.8606 12.4835 35.5599 12.6081L32.8375 13.7357C32.7637 13.7663 32.6873 13.7807 32.6122 13.7807Z" fill="#0B132B"/>
<path d="M29.4181 9.00059C29.2673 9.00059 29.1165 8.94307 29.0014 8.82796C28.7712 8.59781 28.7712 8.22467 29.0014 7.99451L31.085 5.91089C31.3152 5.68076 31.6883 5.68076 31.9185 5.91089C32.1486 6.14104 32.1486 6.51418 31.9185 6.74434L29.8348 8.82796C29.7198 8.94305 29.5689 9.00059 29.4181 9.00059Z" fill="#0B132B"/>
<path d="M24.638 5.80692C24.5629 5.80692 24.4865 5.79246 24.4127 5.76191C24.112 5.63736 23.9693 5.29262 24.0938 4.99188L25.2215 2.26949C25.346 1.96881 25.6907 1.82598 25.9915 1.95054C26.2922 2.07509 26.4349 2.41983 26.3104 2.72054L25.1828 5.44294C25.0888 5.6699 24.8693 5.80692 24.638 5.80692Z" fill="#0B132B"/>
</svg>
