<svg width="30" height="33" viewBox="0 0 30 33" fill="none" xmlns="http://www.w3.org/2000/svg">
<path d="M10.1952 32.6869H4.42121C4.13503 32.6869 3.90303 32.4549 3.90303 32.1687V17.1563C3.90303 16.8701 4.13503 16.6381 4.42121 16.6381H10.1952C10.4814 16.6381 10.7134 16.8701 10.7134 17.1563V32.1687C10.7134 32.4549 10.4814 32.6869 10.1952 32.6869ZM4.93938 31.6506H9.67704V17.6745H4.93938V31.6506Z" fill="#0B132B"/>
<path d="M20.5307 32.6868H10.1952C9.90906 32.6868 9.67706 32.4548 9.67706 32.1686V17.1561C9.67706 17.0187 9.73165 16.8869 9.82883 16.7897L15.0254 11.5931C15.2278 11.3908 15.5559 11.3908 15.7583 11.5931L16.3095 12.1443C17.5018 13.3367 17.8825 15.0894 17.3521 16.638H23.1774C24.3715 16.638 25.4631 17.1888 26.1725 18.1493C26.8819 19.1098 27.0874 20.3153 26.7363 21.4567L24.0896 30.0583C23.8538 30.8248 23.3881 31.4819 22.7429 31.9584C22.0977 32.4349 21.3328 32.6868 20.5307 32.6868ZM10.7134 31.6504H20.5307C21.7178 31.6504 22.75 30.8881 23.0991 29.7535L25.7457 21.1519C25.9991 20.3282 25.8508 19.4582 25.3388 18.765C24.8269 18.0719 24.0391 17.6743 23.1774 17.6743H16.5481C16.3626 17.6743 16.1912 17.5752 16.0988 17.4144C16.0064 17.2536 16.0069 17.0556 16.1003 16.8953C16.8576 15.5951 16.6422 13.9428 15.5766 12.8771L15.3918 12.6923L10.7134 17.3708V31.6504H10.7134Z" fill="#0B132B"/>
<path d="M7.30816 30.3774C6.66308 30.3776 6.61512 29.4064 7.25723 29.3436C7.96928 29.2906 8.02194 30.3597 7.30816 30.3774Z" fill="#0B132B"/>
<path d="M9.01308 10.5317C8.9306 10.5317 8.84782 10.512 8.772 10.4721L6.10981 9.07256L3.44764 10.4721C3.27306 10.5639 3.06149 10.5486 2.90192 10.4327C2.74235 10.3168 2.66243 10.1203 2.69577 9.92587L3.2042 6.96149L1.05046 4.86211C0.909216 4.72444 0.85839 4.51852 0.91934 4.33093C0.980289 4.14335 1.14245 4.00662 1.33764 3.97826L4.31405 3.54576L5.64514 0.848659C5.73242 0.671792 5.91257 0.559807 6.10981 0.559807C6.30705 0.559807 6.48718 0.671792 6.57448 0.848659L7.90559 3.54576L10.882 3.97826C11.0772 4.00662 11.2394 4.14335 11.3003 4.33093C11.3613 4.51852 11.3104 4.72444 11.1692 4.86211L9.01544 6.96149L9.52387 9.92587C9.55721 10.1203 9.47729 10.3168 9.31772 10.4327C9.22745 10.4983 9.12052 10.5317 9.01308 10.5317ZM6.10983 7.96894C6.19266 7.96894 6.27549 7.98879 6.35097 8.02846L8.32494 9.06624L7.94794 6.86818C7.91912 6.70008 7.97484 6.52857 8.09697 6.40953L9.69394 4.85287L7.48697 4.53216C7.3182 4.50765 7.17229 4.40164 7.09682 4.24871L6.10983 2.24887L5.12284 4.24871C5.04737 4.40164 4.90146 4.50765 4.73269 4.53216L2.52572 4.85287L4.12269 6.40953C4.24482 6.52859 4.30054 6.7001 4.27172 6.86818L3.89473 9.06624L5.86869 8.02846C5.94418 7.98877 6.027 7.96894 6.10983 7.96894Z" fill="#0B132B"/>
<path d="M27.5995 10.5316C27.517 10.5316 27.4343 10.512 27.3585 10.4721L24.6963 9.07252L22.0341 10.4721C21.8595 10.5639 21.6479 10.5486 21.4884 10.4327C21.3288 10.3167 21.2489 10.1203 21.2822 9.92584L21.7907 6.96145L19.6369 4.86208C19.4957 4.72441 19.4448 4.51849 19.5058 4.33089C19.5667 4.14331 19.7289 4.00658 19.9241 3.97822L22.9005 3.54572L24.2316 0.848621C24.3189 0.671754 24.499 0.559769 24.6962 0.559769C24.8935 0.559769 25.0736 0.671754 25.1609 0.848621L26.492 3.54572L29.4684 3.97822C29.6636 4.00658 29.8258 4.14331 29.8867 4.33089C29.9477 4.51849 29.8968 4.72441 29.7556 4.86208L27.6018 6.96145L28.1103 9.92584C28.1436 10.1202 28.0637 10.3167 27.9041 10.4327C27.8139 10.4982 27.707 10.5316 27.5995 10.5316ZM24.6962 7.9689C24.7791 7.9689 24.8619 7.98875 24.9374 8.02843L26.9114 9.0662L26.5344 6.86815C26.5055 6.70004 26.5612 6.52853 26.6834 6.40949L28.2804 4.85283L26.0734 4.53212C25.9046 4.50761 25.7587 4.40161 25.6832 4.24867L24.6962 2.24881L23.7093 4.24867C23.6338 4.40161 23.4879 4.50761 23.3191 4.53212L21.1122 4.85283L22.7091 6.40949C22.8313 6.52855 22.887 6.70006 22.8582 6.86815L22.4812 9.0662L24.4551 8.02843C24.5306 7.98873 24.6134 7.9689 24.6962 7.9689Z" fill="#0B132B"/>
<path d="M18.3574 10.5316C18.2749 10.5316 18.1921 10.512 18.1163 10.4721L15.4541 9.07252L12.792 10.4721C12.6173 10.5639 12.4058 10.5486 12.2462 10.4327C12.0867 10.3167 12.0067 10.1203 12.0401 9.92584L12.5485 6.96145L10.3948 4.86208C10.2535 4.72441 10.2027 4.51849 10.2636 4.33089C10.3246 4.14331 10.4867 4.00658 10.6819 3.97822L13.6583 3.54572L14.9894 0.848621C15.0767 0.671754 15.2568 0.559769 15.4541 0.559769C15.6513 0.559769 15.8315 0.671754 15.9188 0.848621L17.2499 3.54572L20.2263 3.97822C20.4215 4.00658 20.5836 4.14331 20.6446 4.33089C20.7055 4.51849 20.6547 4.72441 20.5134 4.86208L18.3597 6.96145L18.8681 9.92584C18.9015 10.1202 18.8216 10.3167 18.662 10.4327C18.5717 10.4982 18.4648 10.5316 18.3574 10.5316ZM11.87 4.85283L13.467 6.40949C13.5891 6.52855 13.6448 6.70006 13.616 6.86815L13.239 9.0662L15.213 8.02843C15.364 7.94907 15.5443 7.94907 15.6952 8.02843L17.6692 9.0662L17.2922 6.86815C17.2634 6.70004 17.3191 6.52853 17.4413 6.40949L19.0382 4.85283L16.8313 4.53212C16.6625 4.50761 16.5166 4.40161 16.4411 4.24867L15.4541 2.24881L14.4672 4.24867C14.3917 4.40161 14.2458 4.50761 14.077 4.53212L11.87 4.85283Z" fill="#0B132B"/>
</svg>
