<svg width="30" height="30" viewBox="0 0 30 30" fill="none" xmlns="http://www.w3.org/2000/svg">
<path d="M26.695 29.0688C25.8859 29.0688 25.0769 28.7609 24.4609 28.1451L15.6478 19.332C15.4667 19.1509 15.4667 18.8573 15.6478 18.6762C15.8289 18.4951 16.1225 18.4951 16.3036 18.6762L25.1167 27.4892C25.5518 27.9243 26.1235 28.1418 26.695 28.1419C27.2667 28.1419 27.8382 27.9244 28.2734 27.4892C28.6949 27.0677 28.927 26.5072 28.927 25.9109C28.927 25.3146 28.6949 24.7541 28.2733 24.3326L17.8586 13.9177C17.6775 13.7367 17.6775 13.443 17.8586 13.2619C18.0396 13.0809 18.3333 13.0809 18.5143 13.2619L28.9291 23.6768C29.5258 24.2734 29.8544 25.0668 29.8544 25.9109C29.8544 26.7549 29.5258 27.5484 28.9291 28.145C28.3132 28.7609 27.5041 29.0688 26.695 29.0688Z" fill="#0B132B"/>
<path d="M11.1706 14.663C11.052 14.663 10.9333 14.6177 10.8427 14.5272L9.44008 13.1246C8.38553 13.4275 7.26943 13.4606 6.19407 13.2187C4.99103 12.9479 3.89222 12.3419 3.01642 11.4661C2.14064 10.5904 1.53461 9.49164 1.26391 8.28856C1.00059 7.11832 1.06302 5.89987 1.44447 4.76496C1.4956 4.61282 1.62178 4.49794 1.77803 4.46127C1.93431 4.42456 2.0984 4.47131 2.2119 4.5848L4.93788 7.31058L7.6999 6.91608L8.0944 4.15406L5.36859 1.42807C5.25511 1.31456 5.20837 1.15045 5.24506 0.994197C5.28175 0.837942 5.39662 0.711768 5.54877 0.660634C6.68368 0.279201 7.90212 0.216756 9.07236 0.480076C10.2755 0.75078 11.3742 1.3568 12.25 2.23261C13.1257 3.10839 13.7317 4.20722 14.0024 5.41024C14.2444 6.48559 14.2113 7.60168 13.9083 8.65625L16.9128 11.6606C17.0938 11.8417 17.0938 12.1354 16.9128 12.3164C16.7316 12.4975 16.4381 12.4975 16.257 12.3164L13.0544 9.11392C12.9299 8.98943 12.8867 8.80517 12.9428 8.63831C13.6257 6.60644 13.1089 4.4032 11.5941 2.88839C10.2644 1.55855 8.40413 0.997861 6.59484 1.34279L8.91408 3.6622C9.01728 3.7654 9.06586 3.91117 9.04522 4.05564L8.56875 7.39148C8.53962 7.59551 8.3793 7.75582 8.17527 7.78496L4.83944 8.26143C4.69497 8.28208 4.54919 8.23348 4.44598 8.13028L2.12663 5.81106C1.7817 7.62035 2.34236 9.48063 3.67218 10.8103C5.187 12.3251 7.39026 12.842 9.4221 12.159C9.58899 12.1029 9.77323 12.1462 9.89774 12.2707L11.4985 13.8714C11.6796 14.0525 11.6796 14.3461 11.4985 14.5272C11.408 14.6177 11.2893 14.663 11.1706 14.663Z" fill="#0B132B"/>
<path d="M4.96555 29.3242C4.13433 29.3242 3.30309 29.0078 2.67029 28.375L1.80007 27.5047C0.534456 26.2391 0.534456 24.1798 1.80007 22.9142L11.4447 13.2696C11.6258 13.0885 11.9194 13.0885 12.1005 13.2696L16.9054 18.0746C17.0865 18.2557 17.0865 18.5493 16.9054 18.7304L7.26082 28.375C6.628 29.0078 5.79678 29.3242 4.96555 29.3242ZM11.7726 14.2533L2.45587 23.57C1.55186 24.474 1.55186 25.9449 2.45587 26.8489L3.3261 27.7192C3.77805 28.1711 4.37191 28.3971 4.96556 28.3972C5.55937 28.3972 6.15299 28.1712 6.60504 27.7192L15.9217 18.4025L11.7726 14.2533Z" fill="#0B132B"/>
<path d="M14.9759 17.2646C14.8572 17.2646 14.7385 17.2193 14.648 17.1288L13.0463 15.5271C12.9594 15.4402 12.9105 15.3222 12.9105 15.1992C12.9105 15.0762 12.9594 14.9583 13.0463 14.8713L25.5317 2.386L25.4592 2.31349C25.3503 2.20468 25.3026 2.049 25.3317 1.8979C25.3608 1.7468 25.4629 1.61998 25.6044 1.55937L28.4073 0.358137C28.5816 0.283456 28.7838 0.322373 28.9178 0.456478L29.7187 1.2573C29.8527 1.39138 29.8917 1.59358 29.817 1.76787L28.6157 4.57075C28.5551 4.71219 28.4283 4.81434 28.2772 4.84344C28.1262 4.87254 27.9704 4.8248 27.8616 4.716L27.7891 4.64347L15.3038 17.1288C15.2132 17.2193 15.0946 17.2646 14.9759 17.2646ZM14.03 15.1992L14.9759 16.1451L27.4612 3.65977C27.6147 3.50627 27.849 3.48288 28.0272 3.58962L28.8409 1.69109L28.484 1.33426L26.5854 2.14794C26.6281 2.2193 26.6511 2.30146 26.6511 2.386C26.6511 2.509 26.6023 2.62694 26.5153 2.7139L14.03 15.1992Z" fill="#0B132B"/>
<path d="M4.16473 24.8724C4.04606 24.8724 3.92738 24.8271 3.83683 24.7366C3.65575 24.5555 3.65575 24.2619 3.83683 24.0808L9.84301 18.0746C10.0241 17.8935 10.3177 17.8935 10.4988 18.0746C10.6799 18.2557 10.6799 18.5493 10.4988 18.7304L4.49263 24.7366C4.40209 24.8271 4.28341 24.8724 4.16473 24.8724Z" fill="#0B132B"/>
<path d="M5.76636 26.474C5.64768 26.474 5.52902 26.4288 5.43846 26.3382C5.25737 26.1571 5.25737 25.8635 5.43846 25.6824L11.4447 19.6762C11.6258 19.4951 11.9194 19.4951 12.1005 19.6762C12.2815 19.8573 12.2815 20.1509 12.1005 20.332L6.09426 26.3382C6.00369 26.4288 5.88504 26.474 5.76636 26.474Z" fill="#0B132B"/>
<path d="M14.9759 20.4678C14.8572 20.4678 14.7385 20.4226 14.648 20.332L9.84303 15.5271C9.66194 15.346 9.66194 15.0524 9.84303 14.8713C10.0241 14.6902 10.3177 14.6902 10.4988 14.8713L15.3038 19.6762C15.4849 19.8573 15.4849 20.1509 15.3038 20.332C15.2132 20.4226 15.0946 20.4678 14.9759 20.4678Z" fill="#0B132B"/>
</svg>
