<svg width="33" height="34" viewBox="0 0 33 34" fill="none" xmlns="http://www.w3.org/2000/svg">
<path d="M18.7658 30.8981C18.2482 30.8981 17.7307 30.8422 17.2273 30.7303L8.45321 28.7805L6.64502 30.5887C6.49475 30.7389 6.26881 30.7839 6.07246 30.7026C5.87612 30.6212 5.74814 30.4297 5.74814 30.2172V22.8394C5.74814 22.6698 5.83008 22.5105 5.96816 22.4119L8.33742 20.7196C9.93349 19.5796 11.9894 19.2919 13.837 19.9503L20.0458 22.1626C20.0538 22.1654 20.0617 22.1685 20.0695 22.1717C20.7013 22.4318 21.1726 22.9464 21.3887 23.5645L26.2726 20.4251C27.274 19.7812 28.4774 19.4966 29.6614 19.6238C30.8451 19.751 31.9606 20.2847 32.8024 21.1265C32.909 21.2331 32.9647 21.3803 32.9553 21.5307C32.9459 21.6811 32.8724 21.8202 32.7535 21.9127L23.1204 29.4051C22.3016 30.0419 21.334 30.4988 20.322 30.7264C19.8131 30.8408 19.2893 30.8981 18.7658 30.8981ZM8.28563 27.6797C8.32357 27.6797 8.36176 27.6838 8.39959 27.6922L17.4552 29.7046C19.2192 30.0966 21.0489 29.6851 22.4753 28.5757L31.6036 21.4759C30.2277 20.4534 28.3127 20.3625 26.8408 21.3089L21.4816 24.754C21.4536 24.9076 21.4101 25.0584 21.3517 25.2047C21.1744 25.6478 20.8714 26.021 20.4753 26.2843C20.0889 26.541 19.6403 26.6767 19.1778 26.6767C18.8901 26.6767 18.6074 26.624 18.3373 26.5199L14.1804 25.3575C13.901 25.2794 13.7378 24.9895 13.8159 24.7101C13.8941 24.4307 14.184 24.2675 14.4634 24.3456L18.6458 25.5151C18.6639 25.5202 18.6818 25.5262 18.6992 25.5332C18.8533 25.5947 19.0143 25.6259 19.1778 25.6259C19.7085 25.6259 20.1788 25.3075 20.376 24.8146C20.4275 24.6857 20.4579 24.5505 20.4663 24.4131C20.4663 24.4128 20.4663 24.4126 20.4663 24.4123C20.4989 23.8668 20.1835 23.3603 19.6802 23.1478L13.4843 20.9401C11.9603 20.3971 10.2646 20.6343 8.94813 21.5746L6.79888 23.1098V28.9488L7.9141 27.8336C8.01371 27.734 8.14783 27.6797 8.28563 27.6797Z" fill="#0B132B"/>
<path d="M6.27353 33.4253H0.907913C0.617761 33.4253 0.382534 33.19 0.382534 32.8999V20.1565C0.382534 19.8664 0.617761 19.6311 0.907913 19.6311H6.27353C6.56369 19.6311 6.79891 19.8664 6.79891 20.1565V32.8999C6.79891 33.19 6.56369 33.4253 6.27353 33.4253ZM1.43329 32.3745H5.74815V20.6819H1.43329V32.3745Z" fill="#0B132B"/>
<path d="M4.06023 31.3239C3.33642 31.306 3.3901 30.222 4.11191 30.2758C4.76292 30.3395 4.71423 31.3243 4.06023 31.3239Z" fill="#0B132B"/>
<path d="M19.8217 17.1386H13.5171C13.227 17.1386 12.9917 16.9034 12.9917 16.6133V16.6107C12.9917 15.4795 12.5074 14.3805 11.6628 13.5955C10.9297 12.9141 10.3524 12.1068 9.94689 11.1961C9.52697 10.2529 9.31403 9.24731 9.31403 8.20711C9.31403 7.2088 9.5107 6.24049 9.8986 5.32906C10.2731 4.449 10.8089 3.65989 11.4909 2.98366C12.1728 2.30761 12.9663 1.77882 13.8492 1.41198C14.7642 1.03182 15.7348 0.843358 16.734 0.852032C18.7049 0.868976 20.5473 1.64952 21.9219 3.04985C23.2963 4.44995 24.043 6.30653 24.0245 8.27763C24.0147 9.31191 23.7944 10.3106 23.3695 11.2459C22.959 12.1498 22.3787 12.95 21.6449 13.6243C20.8201 14.3822 20.3471 15.4707 20.3471 16.6107V16.6133C20.3471 16.9034 20.1119 17.1386 19.8217 17.1386ZM14.0152 16.0879H19.3229C19.4491 14.8481 20.0206 13.6899 20.9339 12.8506C22.2139 11.6744 22.9574 10.004 22.9737 8.26772C22.9896 6.57734 22.3498 4.98568 21.1721 3.78592C19.9943 2.58608 18.4149 1.91728 16.725 1.90275C15.0288 1.88831 13.4338 2.53705 12.2307 3.72985C11.0275 4.92282 10.3648 6.51287 10.3648 8.20711C10.3648 9.95306 11.0987 11.6365 12.3782 12.8259C13.3056 13.6879 13.8862 14.8548 14.0152 16.0879Z" fill="#0B132B"/>
<path d="M18.7709 19.2401H14.5678C14.2777 19.2401 14.0425 19.0049 14.0425 18.7147V16.6132C14.0425 16.323 14.2777 16.0878 14.5678 16.0878H18.7709C19.0611 16.0878 19.2963 16.323 19.2963 16.6132V18.7147C19.2963 19.0049 19.0611 19.2401 18.7709 19.2401ZM15.0932 18.1893H18.2455V17.1386H15.0932V18.1893Z" fill="#0B132B"/>
<path d="M16.6694 17.1383C16.3792 17.1383 16.144 16.903 16.144 16.6129V9.7829C16.144 9.49275 16.3792 9.25752 16.6694 9.25752C16.9595 9.25752 17.1948 9.49275 17.1948 9.7829V16.6129C17.1948 16.903 16.9596 17.1383 16.6694 17.1383Z" fill="#0B132B"/>
<path d="M18.7709 10.3083C18.6365 10.3083 18.502 10.257 18.3994 10.1544L17.7202 9.47519L17.0409 10.1544C16.8357 10.3596 16.5031 10.3596 16.2979 10.1544L15.6186 9.47519L14.9394 10.1544C14.7342 10.3596 14.4016 10.3596 14.1964 10.1544C13.9912 9.94927 13.9912 9.61662 14.1964 9.41144L15.2471 8.36068C15.4523 8.15553 15.785 8.15553 15.9901 8.36068L16.6694 9.03994L17.3487 8.36068C17.5538 8.15553 17.8865 8.15553 18.0917 8.36068L19.1424 9.41144C19.3476 9.61662 19.3476 9.94927 19.1424 10.1544C19.0398 10.257 18.9054 10.3083 18.7709 10.3083Z" fill="#0B132B"/>
<path d="M28.7532 8.73237H26.6517C26.3615 8.73237 26.1263 8.49714 26.1263 8.20699C26.1263 7.91684 26.3615 7.68161 26.6517 7.68161H28.7532C29.0434 7.68161 29.2786 7.91684 29.2786 8.20699C29.2786 8.49714 29.0434 8.73237 28.7532 8.73237Z" fill="#0B132B"/>
<path d="M25.601 6.63086C25.4665 6.63086 25.3321 6.57956 25.2295 6.47698C25.0243 6.27181 25.0243 5.93915 25.2295 5.73398L26.7155 4.24797C26.9207 4.04281 27.2533 4.04281 27.4585 4.24797C27.6636 4.45314 27.6636 4.7858 27.4585 4.99097L25.9725 6.47698C25.8699 6.57958 25.7355 6.63086 25.601 6.63086Z" fill="#0B132B"/>
<path d="M27.0869 12.3198C26.9525 12.3198 26.818 12.2685 26.7154 12.1659L25.2294 10.6799C25.0243 10.4747 25.0243 10.1421 25.2294 9.93689C25.4346 9.73173 25.7673 9.73173 25.9724 9.93689L27.4584 11.4229C27.6636 11.6281 27.6636 11.9607 27.4584 12.1659C27.3559 12.2685 27.2214 12.3198 27.0869 12.3198Z" fill="#0B132B"/>
<path d="M6.6871 8.73237H4.58556C4.2954 8.73237 4.06018 8.49714 4.06018 8.20699C4.06018 7.91684 4.2954 7.68161 4.58556 7.68161H6.6871C6.97725 7.68161 7.21248 7.91684 7.21248 8.20699C7.21248 8.49714 6.97725 8.73237 6.6871 8.73237Z" fill="#0B132B"/>
<path d="M7.73788 6.63086C7.60343 6.63086 7.46898 6.57956 7.36638 6.47698L5.88037 4.99097C5.6752 4.7858 5.6752 4.45314 5.88037 4.24797C6.08555 4.04281 6.4182 4.04281 6.62338 4.24797L8.10939 5.73398C8.31456 5.93915 8.31456 6.27181 8.10939 6.47698C8.00679 6.57958 7.87234 6.63086 7.73788 6.63086Z" fill="#0B132B"/>
<path d="M6.25189 12.3198C6.11743 12.3198 5.98298 12.2685 5.88038 12.1659C5.67521 11.9607 5.67521 11.6281 5.88038 11.4229L7.36639 9.93689C7.57157 9.73173 7.90422 9.73173 8.1094 9.93689C8.31457 10.1421 8.31457 10.4747 8.1094 10.6799L6.62339 12.1659C6.52079 12.2685 6.38634 12.3198 6.25189 12.3198Z" fill="#0B132B"/>
</svg>
