<svg width="51" height="50" viewBox="0 0 51 50" fill="none" xmlns="http://www.w3.org/2000/svg">
<path d="M29.6881 38.2537C24.4739 38.2537 20.2314 34.0112 20.2314 28.797C20.2314 23.5827 24.4739 19.3403 29.6881 19.3403C34.9024 19.3403 39.1448 23.5827 39.1448 28.797C39.1448 34.0112 34.9024 38.2537 29.6881 38.2537ZM29.6881 20.6982C25.2227 20.6982 21.5894 24.3315 21.5894 28.797C21.5894 33.2624 25.2227 36.8957 29.6881 36.8957C34.1536 36.8957 37.7869 33.2624 37.7869 28.797C37.7869 24.3315 34.1536 20.6982 29.6881 20.6982Z" fill="#0B132B"/>
<path d="M33.196 49.7929H26.1796L25.7842 45.0069C24.0861 44.6002 22.476 43.933 20.986 43.0183L18.7303 44.9301C18.4445 45.1728 18.0162 45.1372 17.7735 44.8514C17.5307 44.5655 17.5664 44.1373 17.8522 43.8946L20.8763 41.3315L21.3009 41.6098C22.909 42.665 24.6774 43.3979 26.5582 43.7887L27.0549 43.8917L27.4298 48.435H31.9459L32.3207 43.8917L32.8174 43.7887C34.6973 43.3979 36.4666 42.665 38.0748 41.6098L38.4993 41.3315L41.978 44.2797L45.1717 41.086L42.2235 37.6073L42.5018 37.1828C43.557 35.5746 44.2899 33.8053 44.6797 31.9254L44.7828 31.4287L49.3261 31.0539V26.5378L44.7828 26.163L44.6797 25.6663C44.289 23.7864 43.5561 22.018 42.5018 20.4089L42.2235 19.9844L45.1717 16.5058L41.978 13.312L38.4993 16.2602L38.0748 15.9819C36.4666 14.9267 34.6982 14.1938 32.8174 13.8031L32.3207 13.7L31.9459 9.15674H27.4298L27.0549 13.7L26.5582 13.8031C25.8273 13.9549 25.101 14.1629 24.4 14.4206C24.0486 14.55 23.6578 14.37 23.5285 14.0177C23.3991 13.6662 23.5791 13.2754 23.9314 13.1461C24.5359 12.924 25.1572 12.7357 25.7851 12.5848L26.1806 7.79883H33.1969L33.5924 12.5848C35.2905 12.9915 36.9005 13.6587 38.3906 14.5734L42.0548 11.4677L47.016 16.4289L43.9103 20.0931C44.825 21.5832 45.4913 23.1932 45.898 24.8913L50.684 25.2867V32.3031L45.898 32.6986C45.4913 34.3967 44.8241 36.0057 43.9103 37.4967L47.016 41.1609L42.0548 46.1221L38.3906 43.0164C36.9005 43.9311 35.2905 44.5974 33.5924 45.0051L33.196 49.7929Z" fill="#0B132B"/>
<path d="M11.7743 50H11.0648C8.46333 50 6.34633 47.883 6.34633 45.2815V20.5383C6.34633 20.2449 6.18795 19.976 5.93211 19.8364C2.27726 17.8431 0.00375394 14.0045 5.37356e-06 9.81833C-0.00374319 5.91703 1.95395 2.32312 5.23675 0.205186C5.63129 -0.0497152 6.13266 -0.0684598 6.54501 0.156453C6.95735 0.380429 7.21319 0.811513 7.21319 1.28102V9.98327H15.6259V1.28102C15.6259 0.81245 15.8817 0.381367 16.2932 0.157391C16.7064 -0.0675218 17.2097 -0.0487762 17.6061 0.207062C19.1289 1.19012 20.4119 2.53865 21.3162 4.10742C22.2974 5.70618 22.8382 7.7304 22.8382 9.8071C22.8382 13.9774 20.5646 17.8159 16.9042 19.8242C16.6502 19.9638 16.4918 20.2318 16.4918 20.5242V45.2815C16.4928 47.884 14.3758 50 11.7743 50ZM5.85527 1.42347C3.03353 3.29868 1.35417 6.42683 1.35792 9.81739C1.36167 13.5069 3.36341 16.8891 6.58249 18.6443C7.2741 19.021 7.70425 19.7473 7.70425 20.5373V45.2806C7.70425 47.1333 9.21211 48.6412 11.0648 48.6412H11.7743C13.627 48.6412 15.1348 47.1333 15.1348 45.2806V20.5233C15.1348 19.7351 15.5631 19.0107 16.2519 18.6331C19.4776 16.8637 21.4812 13.4816 21.4812 9.80616C21.4812 7.97312 21.0107 6.19911 20.1551 4.80933L20.1448 4.79247C19.3698 3.4458 18.278 2.28282 16.9829 1.42159V10.0592C16.9829 10.7658 16.4084 11.3402 15.7018 11.3402H7.13541C6.4288 11.3402 5.85433 10.7658 5.85433 10.0592V1.42347H5.85527Z" fill="#0B132B"/>
<path d="M11.4197 44.4398C11.0448 44.4398 10.7412 44.1361 10.7412 43.7613V23.8274C10.7412 23.4526 11.0448 23.1489 11.4197 23.1489C11.7946 23.1489 12.0982 23.4526 12.0982 23.8274V43.7613C12.0991 44.1361 11.7955 44.4398 11.4197 44.4398Z" fill="#0B132B"/>
</svg>
