<svg width="56" height="61" viewBox="0 0 56 61" fill="none" xmlns="http://www.w3.org/2000/svg">
<path d="M41.5735 30.6679C41.5624 30.6679 41.5513 30.6679 41.5402 30.6679C41.0962 30.6635 40.7399 30.2994 40.7444 29.8555C40.7488 29.4137 41.1084 29.0597 41.5479 29.0597C41.5568 29.0597 41.5657 29.0597 41.5735 29.0597C42.0274 29.0597 42.4048 28.8821 42.7289 28.5181C43.5813 27.5569 43.922 25.5058 43.6168 23.165C43.5591 22.7244 43.8699 22.3215 44.3105 22.2638C44.7511 22.2071 45.154 22.5168 45.2117 22.9574C45.5802 25.7888 45.1018 28.2672 43.932 29.5858C43.3016 30.295 42.4869 30.6679 41.5735 30.6679Z" fill="#0B132B" stroke="black" stroke-width="0.5"/>
<path d="M24.7153 28.8565H21.4023C20.9583 28.8565 20.5987 28.4969 20.5987 28.053C20.5987 27.609 20.9583 27.2494 21.4023 27.2494H24.7153C25.1593 27.2494 25.5189 27.609 25.5189 28.053C25.5189 28.4969 25.1593 28.8565 24.7153 28.8565Z" fill="#0B132B" stroke="black" stroke-width="0.5"/>
<path d="M35.3402 28.8565H32.0271C31.5832 28.8565 31.2236 28.4969 31.2236 28.053C31.2236 27.609 31.5832 27.2494 32.0271 27.2494H35.3402C35.7842 27.2494 36.1438 27.609 36.1438 28.053C36.1438 28.4969 35.7842 28.8565 35.3402 28.8565Z" fill="#0B132B" stroke="black" stroke-width="0.5"/>
<path d="M28.349 34.4737C27.8417 34.4737 26.8495 34.2328 26.3068 33.3327C26.0781 32.952 26.2002 32.4581 26.5809 32.2295C26.9616 32.0008 27.4555 32.1229 27.6841 32.5036C27.8861 32.8388 28.339 32.8665 28.3434 32.8665C28.3523 32.8665 28.8051 32.8388 29.0071 32.5036C29.2358 32.1229 29.7308 32.0008 30.1104 32.2295C30.4911 32.4581 30.6132 32.9531 30.3845 33.3327C29.8418 34.2328 28.8495 34.4737 28.349 34.4737Z" fill="#0B132B" stroke="black" stroke-width="0.5"/>
<path d="M28.3544 39.2312H28.3378C28.2401 39.2312 25.9315 39.2223 24.6551 38.472C24.2722 38.2467 24.1446 37.7539 24.3699 37.3721C24.5952 36.9892 25.088 36.8616 25.4709 37.0869C26.1369 37.4787 27.583 37.6241 28.3389 37.6241H28.3555C29.1114 37.6241 30.5576 37.4787 31.2235 37.0869C31.6064 36.8616 32.0992 36.9892 32.3245 37.3721C32.5499 37.755 32.4222 38.2478 32.0393 38.472C30.7607 39.2223 28.4521 39.2312 28.3544 39.2312Z" fill="#0B132B" stroke="black" stroke-width="0.5"/>
<path d="M1.80357 60.4999C1.35961 60.4999 1 60.1402 1 59.6963V58.8971C1 56.2545 1.83242 53.7361 3.40625 51.614C4.9812 49.4918 7.14994 47.9646 9.67829 47.1977L9.78928 47.1644C11.6717 46.5939 13.6229 46.3042 15.5896 46.3042H19.6019C20.0458 46.3042 20.4054 46.6638 20.4054 47.1078C20.4054 47.5517 20.0458 47.9113 19.6019 47.9113H15.5896C13.7805 47.9113 11.9858 48.1777 10.2554 48.7016L10.1444 48.7349C5.63603 50.1012 2.60713 54.1856 2.60713 58.896V59.6952C2.60824 60.1391 2.24752 60.4999 1.80357 60.4999Z" fill="#0B132B" stroke="black" stroke-width="0.5"/>
<path d="M19.6041 47.9116C19.5631 47.9116 19.522 47.9082 19.481 47.9016C19.0425 47.8339 18.7418 47.4232 18.8095 46.9848L19.6874 41.3021C19.7551 40.8637 20.1657 40.5629 20.6042 40.6306C21.0426 40.6983 21.3434 41.109 21.2757 41.5474L20.3977 47.2301C20.3356 47.6274 19.9937 47.9116 19.6041 47.9116Z" fill="#0B132B" stroke="black" stroke-width="0.5"/>
<path d="M54.8879 60.4998C54.4439 60.4998 54.0843 60.1402 54.0843 59.6963V58.8971C54.0843 54.1856 51.0554 50.1023 46.547 48.736L46.436 48.7027C44.7056 48.1777 42.9109 47.9124 41.1018 47.9124H37.1672C36.7233 47.9124 36.3636 47.5528 36.3636 47.1089C36.3636 46.6649 36.7233 46.3053 37.1672 46.3053H41.1018C43.0685 46.3053 45.0208 46.595 46.9021 47.1655L47.0131 47.1988C49.5426 47.9657 51.7113 49.4929 53.2852 51.6151C54.8601 53.7372 55.6914 56.2556 55.6914 58.8982V59.6974C55.6925 60.1391 55.3318 60.4998 54.8879 60.4998Z" fill="#0B132B" stroke="black" stroke-width="0.5"/>
<path d="M37.1661 47.9115C36.7865 47.9115 36.4491 47.6418 36.377 47.2544L35.3359 41.6627C35.2549 41.2265 35.5423 40.807 35.9785 40.7249C36.4147 40.6438 36.8353 40.9313 36.9164 41.3675L37.9575 46.9592C38.0385 47.3954 37.751 47.8149 37.3148 47.897C37.2649 47.907 37.2149 47.9115 37.1661 47.9115Z" fill="#0B132B" stroke="black" stroke-width="0.5"/>
<path d="M28.3845 50.7484C26.5177 50.7484 24.3223 50.4099 22.512 49.8428C20.3455 49.1646 19.1058 48.3166 18.8283 47.3244C18.7084 46.8971 18.9582 46.4531 19.3855 46.3333C19.8128 46.2134 20.2567 46.4631 20.3766 46.8904C20.4243 47.0602 21.007 47.6862 22.9926 48.3078C24.6564 48.8283 26.672 49.1402 28.3845 49.1402C30.0971 49.1402 32.1127 48.8294 33.7764 48.3078C35.762 47.6862 36.3447 47.0602 36.3924 46.8904C36.5123 46.4631 36.9563 46.2134 37.3836 46.3333C37.8109 46.4531 38.0606 46.896 37.9407 47.3244C37.6633 48.3166 36.4235 49.1646 34.257 49.8428C32.4468 50.4099 30.2514 50.7484 28.3845 50.7484Z" fill="#0B132B" stroke="black" stroke-width="0.5"/>
<path d="M34.3625 18.8897C34.3248 18.8897 34.287 18.8875 34.2493 18.8819C33.8098 18.8198 33.5035 18.4136 33.5656 17.974L35.579 3.70624C35.5912 3.61745 35.5346 3.53088 35.4347 3.48315C33.7732 2.69956 30.7254 2.10909 28.3458 2.10909C27.9018 2.10909 27.5422 1.74948 27.5422 1.30552C27.5422 0.86156 27.9018 0.501953 28.3458 0.501953C30.9729 0.501953 34.2427 1.14459 36.1206 2.02918C36.862 2.3788 37.2838 3.14463 37.1706 3.93267L35.1572 18.1994C35.1006 18.5989 34.7565 18.8897 34.3625 18.8897Z" fill="#0B132B" stroke="black" stroke-width="0.5"/>
<path d="M35.3181 21.5389H28.3934C27.9495 21.5389 27.5899 21.1793 27.5899 20.7353C27.5899 20.2914 27.9495 19.9318 28.3934 19.9318H35.3181C35.7621 19.9318 36.1217 20.2914 36.1217 20.7353C36.1228 21.1793 35.7632 21.5389 35.3181 21.5389Z" fill="#0B132B" stroke="black" stroke-width="0.5"/>
<path d="M28.3456 45.6854C22.7528 45.6854 19.7972 42.2846 17.8471 39.3223C16.3809 37.0947 15.2544 34.1247 14.4031 30.2422C14.2721 29.644 14.1522 29.0302 14.0479 28.4175C13.9735 27.9802 14.2677 27.564 14.705 27.4896C15.1434 27.4164 15.5585 27.7094 15.6328 28.1467C15.7327 28.735 15.8482 29.3232 15.9736 29.897C16.7816 33.583 17.8338 36.3766 19.1901 38.4377C21.0258 41.2269 23.5486 44.0771 28.3456 44.0771C33.1426 44.0771 35.6654 41.2258 37.5012 38.4377C38.8575 36.3777 39.9096 33.5841 40.7176 29.897C40.8431 29.3232 40.9574 28.735 41.0584 28.1467C41.1328 27.7094 41.5479 27.4153 41.9863 27.4896C42.4236 27.564 42.7177 27.9791 42.6433 28.4175C42.539 29.0302 42.4191 29.644 42.2882 30.2422C41.4369 34.1247 40.3103 37.0947 38.8442 39.3223C36.8952 42.2846 33.9395 45.6854 28.3456 45.6854Z" fill="#0B132B" stroke="black" stroke-width="0.5"/>
<path d="M15.1202 30.6683C14.2101 30.6683 13.392 30.2832 12.7516 29.5517C11.5452 28.1743 11.0624 25.6882 11.4597 22.9012C11.523 22.4617 11.9292 22.1565 12.3687 22.2186C12.8082 22.2808 13.1135 22.6881 13.0513 23.1276C12.7283 25.3874 13.0857 27.4929 13.9603 28.4918C14.3 28.8791 14.6862 29.0645 15.1368 29.06C15.139 29.06 15.1424 29.06 15.1446 29.06C15.5852 29.06 15.9437 29.4152 15.9482 29.8558C15.9526 30.2998 15.5963 30.6639 15.1524 30.6683C15.1424 30.6683 15.1313 30.6683 15.1202 30.6683Z" fill="#0B132B" stroke="black" stroke-width="0.5"/>
<path d="M28.3457 25.1552C18.6963 25.1552 12.7284 24.7212 8.8282 22.4348L8.43085 22.2018V21.7411C8.43085 21.3527 8.65837 21.0874 8.89922 20.8066C9.2111 20.4437 9.63841 19.9453 9.70279 19.185C9.92033 16.6289 10.2988 13.8819 11.5907 11.116C13.27 7.51885 16.1014 4.89838 20.006 3.32787C20.4178 3.16249 20.8861 3.36226 21.0515 3.77404C21.2169 4.18581 21.0171 4.6542 20.6053 4.81957C12.2511 8.17814 11.5874 15.9863 11.3044 19.3216C11.2222 20.2905 10.7994 20.9942 10.4353 21.4692C14.0569 23.204 19.643 23.5481 28.3446 23.5481C36.9841 23.5481 42.5502 23.2095 46.1752 21.507C45.8289 21.0974 45.4704 20.5147 45.4149 19.7089C44.9032 12.2881 41.7578 7.27579 36.064 4.81181C35.6567 4.63533 35.4691 4.16251 35.6456 3.75518C35.822 3.34784 36.2948 3.16027 36.7022 3.33674C40.498 4.9794 43.3038 7.69421 45.0431 11.4057C46.1552 13.7787 46.8011 16.458 47.0176 19.599C47.0564 20.1618 47.4316 20.5225 47.7323 20.8122C47.9787 21.0486 48.2585 21.3172 48.2585 21.7423V22.2029L47.8611 22.4359C43.9642 24.7212 37.9952 25.1552 28.3457 25.1552Z" fill="#0B132B" stroke="black" stroke-width="0.5"/>
<path d="M20.8827 8.63571C20.4887 8.63571 20.1447 8.34603 20.0881 7.94424L19.522 3.92972C19.4088 3.1428 19.8305 2.37697 20.572 2.02735C22.4499 1.14165 25.7197 0.500122 28.3468 0.500122C28.7908 0.500122 29.1504 0.859729 29.1504 1.30369C29.1504 1.74765 28.7908 2.10727 28.3468 2.10727C25.9672 2.10727 22.9194 2.69774 21.2579 3.48133C21.158 3.52906 21.1014 3.61563 21.1136 3.7022L21.6807 7.71782C21.7429 8.15734 21.4366 8.56468 20.9971 8.62573C20.9582 8.6335 20.9205 8.63571 20.8827 8.63571Z" fill="#0B132B" stroke="black" stroke-width="0.5"/>
<path d="M22.33 18.8896C21.936 18.8896 21.592 18.5999 21.5354 18.1981L20.088 7.94484C20.0259 7.50532 20.3322 7.09798 20.7717 7.03694C21.2113 6.97367 21.6186 7.28112 21.6796 7.72064L23.1269 17.9739C23.1891 18.4134 22.8828 18.8208 22.4432 18.8818C22.4055 18.8863 22.3678 18.8896 22.33 18.8896Z" fill="#0B132B" stroke="black" stroke-width="0.5"/>
<path d="M28.2981 21.5389H21.3734C20.9294 21.5389 20.5698 21.1793 20.5698 20.7353C20.5698 20.2914 20.9294 19.9318 21.3734 19.9318H28.2981C28.742 19.9318 29.1016 20.2914 29.1016 20.7353C29.1016 21.1793 28.742 21.5389 28.2981 21.5389Z" fill="#0B132B" stroke="black" stroke-width="0.5"/>
<path d="M17.1556 60.4413C16.7693 60.4413 16.4286 60.1616 16.3631 59.7687L14.2965 47.2657C14.2243 46.8273 14.5207 46.4144 14.958 46.3411C15.3964 46.269 15.8104 46.5653 15.8825 47.0027L17.9492 59.5057C18.0213 59.9441 17.725 60.357 17.2877 60.4302C17.2433 60.4369 17.2 60.4413 17.1556 60.4413Z" fill="#0B132B" stroke="black" stroke-width="0.5"/>
<path d="M11.6527 60.4413C11.2665 60.4413 10.9257 60.1616 10.8602 59.7687L8.94012 48.1547C8.86798 47.7163 9.16432 47.3034 9.60162 47.2302C10.04 47.158 10.454 47.4544 10.5261 47.8917L12.4463 59.5057C12.5184 59.9441 12.2221 60.357 11.7848 60.4303C11.7404 60.4369 11.6971 60.4413 11.6527 60.4413Z" fill="#0B132B" stroke="black" stroke-width="0.5"/>
<path d="M39.4945 60.4415C39.4512 60.4415 39.4068 60.4382 39.3624 60.4304C38.924 60.3583 38.6277 59.9443 38.7009 59.5058L40.7686 47.0028C40.8408 46.5644 41.2548 46.2691 41.6932 46.3413C42.1316 46.4134 42.4279 46.8274 42.3547 47.2658L40.287 59.7689C40.2215 60.1618 39.8807 60.4415 39.4945 60.4415Z" fill="#0B132B" stroke="black" stroke-width="0.5"/>
<path d="M44.9975 60.4415C44.9542 60.4415 44.9098 60.4382 44.8654 60.4304C44.427 60.3583 44.1306 59.9443 44.2039 59.5058L46.124 47.8918C46.1961 47.4534 46.6101 47.1582 47.0486 47.2303C47.487 47.3025 47.7833 47.7165 47.7101 48.1549L45.7899 59.7689C45.7244 60.1618 45.3837 60.4415 44.9975 60.4415Z" fill="#0B132B" stroke="black" stroke-width="0.5"/>
</svg>
