<svg width="70" height="61" viewBox="0 0 70 61" fill="none" xmlns="http://www.w3.org/2000/svg">
<path d="M35.1154 60.5C34.8337 60.5 34.5521 60.3926 34.3372 60.1777L6.45528 32.2958C4.67763 30.5182 3.30111 28.445 2.36391 26.1338C1.45887 23.9021 1 21.5442 1 19.1256C1 16.7071 1.45887 14.3492 2.36391 12.1175C3.30111 9.80633 4.67768 7.73315 6.45528 5.9555C8.23288 4.17794 10.3061 2.80142 12.6173 1.86417C14.849 0.959226 17.2068 0.500222 19.6253 0.5C22.0441 0.500267 24.4019 0.959226 26.6335 1.86417C28.9448 2.80142 31.018 4.17799 32.7956 5.9555L35.1154 8.27531L37.4352 5.9555C39.2129 4.17785 41.286 2.80129 43.5972 1.86409C45.829 0.959094 48.1869 0.500178 50.6053 0.500178C53.0239 0.500178 55.3818 0.959049 57.6135 1.86409C59.9247 2.80133 61.9979 4.17785 63.7755 5.9555C65.553 7.73306 66.9296 9.80629 67.8669 12.1176C68.7719 14.3492 69.2309 16.707 69.2311 19.1255C69.2309 21.5443 68.7719 23.9021 67.8669 26.1337C66.9296 28.445 65.553 30.5183 63.7755 32.2958L35.8936 60.1777C35.6787 60.3925 35.397 60.5 35.1154 60.5ZM19.6253 2.70103C15.2381 2.70147 11.1136 4.41 8.01162 7.51189C1.60777 13.9157 1.60777 24.3356 8.01162 30.7394L35.1154 57.8431L62.2191 30.7394C65.321 27.6375 67.0295 23.5129 67.03 19.1255C67.0295 14.7383 65.321 10.6138 62.2191 7.51184C55.8153 1.10795 45.3953 1.10804 38.9915 7.51184L35.8935 10.6098C35.6871 10.8162 35.4072 10.9322 35.1154 10.9322C34.8235 10.9322 34.5436 10.8162 34.3372 10.6098L31.2392 7.51184C28.1373 4.40995 24.0128 2.70143 19.6253 2.70103Z" fill="#0B132B"/>
<path d="M62.9973 31.5176H62.9977M35.1154 60.5C34.8337 60.5 34.5521 60.3926 34.3372 60.1777L6.45528 32.2958C4.67763 30.5182 3.30111 28.445 2.36391 26.1338C1.45887 23.9021 1 21.5442 1 19.1256C1 16.7071 1.45887 14.3492 2.36391 12.1175C3.30111 9.80633 4.67768 7.73315 6.45528 5.9555C8.23288 4.17794 10.3061 2.80142 12.6173 1.86418C14.849 0.959226 17.2068 0.500222 19.6253 0.5C22.0441 0.500267 24.4019 0.959226 26.6335 1.86418C28.9448 2.80142 31.018 4.17799 32.7956 5.9555L35.1154 8.27531L37.4352 5.9555C39.2129 4.17785 41.286 2.80129 43.5972 1.86409C45.829 0.959094 48.1869 0.500178 50.6053 0.500178C53.0239 0.500178 55.3818 0.959049 57.6135 1.86409C59.9247 2.80133 61.9979 4.17785 63.7755 5.9555C65.553 7.73306 66.9296 9.80629 67.8669 12.1176C68.7718 14.3492 69.2309 16.707 69.2311 19.1255C69.2309 21.5443 68.7718 23.9021 67.8669 26.1337C66.9296 28.445 65.553 30.5183 63.7755 32.2958L35.8936 60.1777C35.6787 60.3925 35.397 60.5 35.1154 60.5ZM19.6253 2.70103C15.2381 2.70147 11.1136 4.41 8.01162 7.51189C1.60777 13.9157 1.60777 24.3356 8.01162 30.7394L35.1154 57.8431L62.2191 30.7394C65.321 27.6375 67.0295 23.5129 67.03 19.1255C67.0295 14.7383 65.321 10.6138 62.2191 7.51184C55.8153 1.10795 45.3953 1.10804 38.9915 7.51184L35.8935 10.6098C35.6872 10.8162 35.4072 10.9322 35.1154 10.9322C34.8235 10.9322 34.5436 10.8162 34.3372 10.6098L31.2392 7.51184C28.1373 4.40995 24.0128 2.70143 19.6253 2.70103Z" stroke="#0B132B" stroke-width="0.5"/>
</svg>
