<svg width="67" height="61" viewBox="0 0 67 61" fill="none" xmlns="http://www.w3.org/2000/svg">
<path d="M16.5323 50.6969L16.3508 50.6566L16.2193 50.7881L12.5318 54.4756C12.3222 54.6851 12.0071 54.7478 11.7333 54.6344C11.4595 54.521 11.281 54.2538 11.281 53.9575V38.9119C11.281 38.6753 11.3953 38.4532 11.5878 38.3157L11.3909 38.0401L11.5878 38.3157L16.4195 34.8645C16.4195 34.8645 16.4195 34.8645 16.4195 34.8645C19.5842 32.604 23.6609 32.0337 27.3243 33.3391L27.438 33.0202L27.3244 33.3391L39.9862 37.8508L39.9867 37.8509C39.9972 37.8547 40.0082 37.8589 40.0196 37.8635C41.2164 38.3564 42.1092 39.3312 42.5187 40.5023L42.6604 40.9077L43.0216 40.6755L52.9814 34.2732L52.9815 34.2731C54.9586 33.0019 57.3352 32.4399 59.6729 32.691C62.0099 32.9421 64.2131 33.9961 65.8752 35.6583C66.0238 35.8069 66.1014 36.0122 66.0883 36.2218C66.0753 36.4317 65.9728 36.6257 65.8069 36.7547L46.1619 52.0341C44.5316 53.3021 42.6038 54.2123 40.5887 54.6654L40.5886 54.6654C39.5758 54.8933 38.5327 55.0073 37.4895 55.0073C36.4582 55.0073 35.4275 54.8959 34.4256 54.6733L16.5323 50.6969ZM16.2759 49.1389L16.276 49.1389L34.7434 53.2428C38.4392 54.0641 42.2738 53.2018 45.2623 50.8774L63.8779 36.3987L64.2296 36.1252L63.872 35.8594C60.9552 33.6915 56.8965 33.4981 53.7739 35.5058C53.7739 35.5058 53.7739 35.5058 53.7739 35.5058L42.8447 42.5313L42.721 42.6108L42.6946 42.7555C42.6416 43.0464 42.5593 43.3322 42.4485 43.6097C42.1124 44.4497 41.5386 45.1562 40.7882 45.6549C40.0558 46.1417 39.206 46.3986 38.3298 46.3986C37.7849 46.3986 37.2498 46.2988 36.7374 46.1015L36.7224 46.0957L36.7069 46.0914L28.2298 43.7209C27.8401 43.6119 27.6125 43.2077 27.7215 42.818L27.3952 42.7268L27.7215 42.818C27.8305 42.4283 28.2348 42.2007 28.6244 42.3097L28.7156 41.9835L28.6244 42.3097L37.1536 44.6947L37.1537 44.6947C37.1791 44.7018 37.2039 44.7102 37.2279 44.7198L37.2282 44.72C37.5817 44.8611 37.9526 44.9332 38.3298 44.9332C39.5507 44.9332 40.6343 44.1994 41.0878 43.0657L41.0879 43.0656C41.2063 42.7694 41.2763 42.4583 41.2955 42.1417L41.2956 42.1397L41.2957 42.1396C41.2957 42.1385 41.2958 42.1374 41.2958 42.1361C41.3693 40.8815 40.6433 39.7172 39.4861 39.2287L39.4771 39.225L39.468 39.2217L26.8325 34.7195C23.6203 33.5749 20.0461 34.0749 17.2713 36.0569L17.4636 36.3261L17.2713 36.0569L12.8882 39.1876L12.7464 39.2889V39.4633V51.3708V52.1887L13.3247 51.6104L15.599 49.3361C15.7378 49.1972 15.9249 49.1215 16.1171 49.1215C16.17 49.1215 16.2232 49.1272 16.2759 49.1389Z" fill="#0B132B" stroke="black" stroke-width="0.677508"/>
<path d="M1.80415 58.3571V58.6958H2.1429H10.9423H11.2811V58.3571V34.5121V34.1733H10.9423H2.1429H1.80415V34.5121V58.3571ZM12.0137 60.1612H1.07148C0.666854 60.1612 0.338815 59.8331 0.338815 59.4285V33.4407C0.338815 33.0361 0.666852 32.708 1.07148 32.708H12.0137C12.4183 32.708 12.7464 33.0361 12.7464 33.4407V59.4285C12.7464 59.8332 12.4184 60.1612 12.0137 60.1612Z" fill="#0B132B" stroke="black" stroke-width="0.677508"/>
<path d="M7.50426 55.8756C7.22947 55.8678 7.05522 55.7635 6.94776 55.6336C6.83416 55.4963 6.77571 55.306 6.78552 55.1075C6.79533 54.9089 6.87225 54.7254 6.99878 54.6C7.11848 54.4814 7.3021 54.3949 7.57626 54.4144C8.01958 54.4596 8.23104 54.8006 8.21241 55.178C8.19378 55.5554 7.94972 55.874 7.50426 55.8756Z" fill="#0B132B" stroke="black" stroke-width="0.677508"/>
<path d="M24.1095 27.855L24.2065 27.9081C26.8992 29.3821 30.0048 30.1612 33.2143 30.1612C37.7137 30.1612 41.9416 28.6456 45.1236 25.904C46.6857 24.5581 47.9105 22.9902 48.7675 21.2444L49.0716 21.3937L48.7675 21.2444C49.6608 19.4248 50.1129 17.4928 50.1129 15.5C50.1129 13.5071 49.6608 11.5752 48.7675 9.75548L49.0716 9.6062L48.7675 9.75547C47.9105 8.0097 46.6857 6.44184 45.1236 5.09594C41.9416 2.35443 37.7137 0.838754 33.2143 0.838754C28.7148 0.838754 24.4869 2.35443 21.305 5.09594C19.7428 6.44185 18.518 8.0097 17.661 9.75547L17.661 9.75548C16.7677 11.5751 16.3157 13.5071 16.3157 15.5C16.3157 18.7169 17.5164 21.8078 19.7366 24.3484L20.0613 24.7201L19.5978 24.8895C18.6594 25.2325 17.7927 25.4186 17.0483 25.4186C16.7064 25.4186 16.41 25.655 16.334 25.9883L16.0037 25.9129L16.334 25.9883C16.258 26.3215 16.4225 26.6631 16.7305 26.8114L24.1095 27.855ZM24.1095 27.855L23.9999 27.8694M24.1095 27.855L23.9999 27.8694M23.9999 27.8694C23.4289 27.9441 22.8724 27.9762 22.3387 27.9762M23.9999 27.8694L22.3387 27.9762M24.6153 26.4573L24.6152 26.4573C24.5036 26.3931 24.3775 26.3598 24.25 26.3598C24.2112 26.3598 24.172 26.3629 24.133 26.3692L24.6153 26.4573ZM24.6153 26.4573C27.1639 27.9233 30.1377 28.6959 33.2142 28.6959C41.6715 28.6959 48.6475 22.8254 48.6475 15.5C48.6475 8.17456 41.6715 2.30413 33.2143 2.30413C24.757 2.30413 17.781 8.17455 17.781 15.5C17.781 18.8121 19.2258 21.9743 21.8294 24.406C22.0055 24.5704 22.0894 24.811 22.054 25.0493C22.0185 25.2876 21.8681 25.4932 21.6518 25.5993L21.6518 25.5993M24.6153 26.4573L21.6518 25.5993M21.6518 25.5993C21.4962 25.6756 21.3423 25.7485 21.1899 25.8179L20.0162 26.3526M21.6518 25.5993L20.0162 26.3526M20.0162 26.3526L21.3012 26.4636M20.0162 26.3526L21.3012 26.4636M21.3012 26.4636C22.1666 26.5384 23.1284 26.5316 24.1329 26.3692L21.3012 26.4636ZM22.3387 27.9762C19.1912 27.9764 16.8321 26.8603 16.7305 26.8114L22.3387 27.9762Z" fill="#0B132B" stroke="black" stroke-width="0.677508"/>
<path d="M33.2143 23.7327C28.6751 23.7327 24.9816 20.0392 24.9816 15.5C24.9816 10.9608 28.6751 7.26734 33.2143 7.26734C37.7535 7.26734 41.447 10.9608 41.447 15.5C41.447 20.0393 37.7535 23.7327 33.2143 23.7327ZM33.2143 8.73267C29.4825 8.73267 26.447 11.7682 26.447 15.5C26.447 19.2318 29.4825 22.2673 33.2143 22.2673C36.9461 22.2673 39.9816 19.2318 39.9816 15.5C39.9816 11.7682 36.9461 8.73267 33.2143 8.73267Z" fill="#0B132B" stroke="black" stroke-width="0.677508"/>
<path d="M32.9747 16.3671L33.2143 16.6067L33.4538 16.3671L41.2676 8.55333C41.2676 8.55333 41.2676 8.55332 41.2676 8.55332C41.5537 8.26724 42.0176 8.26723 42.3037 8.55331C42.5898 8.83944 42.5898 9.30336 42.3037 9.58949L33.7323 18.1609L33.7323 18.1609C33.5892 18.304 33.4023 18.3755 33.2143 18.3755C33.0262 18.3755 32.8394 18.3041 32.6962 18.1609C32.6962 18.1609 32.6962 18.1609 32.6962 18.1609L29.4819 14.9466C29.1958 14.6605 29.1957 14.1966 29.4819 13.9105C29.768 13.6244 30.2319 13.6244 30.518 13.9105C30.518 13.9105 30.518 13.9105 30.518 13.9105L32.9747 16.3671Z" fill="#0B132B" stroke="black" stroke-width="0.677508"/>
</svg>
