<svg width="69" height="67" viewBox="0 0 69 67" fill="none" xmlns="http://www.w3.org/2000/svg">
<path d="M51.194 63.5C50.5482 63.5 49.9003 63.3459 49.3068 63.034L34.3353 55.1629L19.3634 63.034C17.9971 63.7523 16.3408 63.6328 15.0917 62.7252C13.8424 61.8178 13.2168 60.2797 13.4779 58.758L16.3373 42.0868L4.22508 30.2802C3.11939 29.2025 2.72154 27.5906 3.19865 26.1221C3.67577 24.6537 4.94519 23.5834 6.47314 23.3614L23.212 20.9291L30.6978 5.76114C31.3811 4.37662 32.7911 3.5 34.3353 3.5C35.8794 3.5 37.2893 4.37662 37.9728 5.76114L45.4586 20.9291L62.1974 23.3614C63.7254 23.5834 64.9948 24.6537 65.4719 26.1221C65.949 27.5906 65.5512 29.2025 64.4455 30.2802L52.3331 42.0868L55.1925 58.758C55.4536 60.2797 54.828 61.8178 53.5787 62.7252C52.8719 63.2387 52.0349 63.5 51.194 63.5ZM15.7733 30.208L23.527 37.766C24.4832 38.698 24.9194 40.0406 24.6936 41.3564L22.8632 52.0286L32.4476 46.9899C33.6294 46.3687 35.041 46.3687 36.2226 46.9899L45.8069 52.0286L43.9765 41.3564C43.7507 40.0404 44.1869 38.6978 45.1431 37.766L52.897 30.208L42.1813 28.6509C40.86 28.459 39.7181 27.6292 39.1272 26.432L34.3351 16.7222L29.543 26.432C28.9521 27.6292 27.8101 28.459 26.4889 28.6509L15.7733 30.208Z" fill="#0B132B" stroke="#CAF0F8" stroke-width="5.6"/>
</svg>
