<svg width="114" height="80" viewBox="0 0 114 80" fill="none" xmlns="http://www.w3.org/2000/svg">
<g clip-path="url(#clip0_300_37)">
<path d="M46.9408 0L-0.00012207 27.0071V36.766L46.9408 9.75887L79.7351 28.6714V18.9125L46.9408 0Z" fill="#3CE1EA"/>
<path d="M46.9409 12.7808L14.1088 31.6933V79.9959H19.5177V31.6933L49.6265 14.3316L46.9409 12.7808Z" fill="#0B132B"/>
<path fill-rule="evenodd" clip-rule="evenodd" d="M113.475 79.9975H23.1112V33.8131L52.2743 16.981L54.6951 18.3805L27.915 33.8131V75.1937L38.7708 75.7989V47.0519C38.7708 41.9833 42.8937 37.8604 47.9623 37.8604C53.0308 37.8604 57.1538 41.9833 57.1538 47.0519V76.858L113.475 79.9975ZM42.5155 75.9881L53.4091 76.6311V47.0141C53.4091 44.0259 50.9504 41.6051 47.9623 41.6051C44.9741 41.6051 42.5155 44.0259 42.5155 47.0141V75.9881Z" fill="#0B132B"/>
</g>
<defs>
<clipPath id="clip0_300_37">
<rect width="113.475" height="80" fill="white"/>
</clipPath>
</defs>
</svg>
