<svg width="122" height="55" viewBox="0 0 122 55" fill="none" xmlns="http://www.w3.org/2000/svg">
<g clip-path="url(#clip0_222_94)">
<path d="M31.7711 0L0 18.2792V24.8843L31.7711 6.6051L53.9673 19.4057V12.8006L31.7711 0Z" fill="#3CE1EA"/>
<path d="M31.7711 8.65332L9.54929 21.4539V54.1466H13.2103V21.4539L33.5888 9.70297L31.7711 8.65332Z" fill="white"/>
<path fill-rule="evenodd" clip-rule="evenodd" d="M76.8036 54.1464H15.6424V22.8874L35.3809 11.4949L37.0193 12.4421L18.8937 22.8874V50.8951L26.2413 51.3047V31.8478C26.2413 28.4172 29.0318 25.6267 32.4623 25.6267C35.8929 25.6267 38.6834 28.4172 38.6834 31.8478V52.0215L76.8036 54.1464ZM28.7758 51.4327L36.1489 51.8679V31.8222C36.1489 29.7997 34.4848 28.1612 32.4623 28.1612C30.4398 28.1612 28.7758 29.7997 28.7758 31.8222V51.4327Z" fill="white"/>
</g>
<path d="M52.8513 34.7325C52.8513 34.7739 52.8306 34.8318 52.7893 34.9062C52.7479 34.9807 52.7189 35.0386 52.7024 35.0799C52.5949 35.2702 52.4294 35.4687 52.2061 35.6756C51.9827 35.8824 51.7759 36.0519 51.5856 36.1843C51.1968 36.4573 50.7873 36.6351 50.3572 36.7179C49.927 36.8006 49.4803 36.842 49.0171 36.842C48.1154 36.842 47.346 36.6558 46.7091 36.2836C46.0721 35.903 45.584 35.3777 45.2449 34.7077C44.914 34.0293 44.7485 33.2476 44.7485 32.3625C44.7485 31.4856 44.9098 30.6956 45.2324 29.9924C45.5551 29.2893 46.0307 28.7309 46.6594 28.3173C47.2964 27.8954 48.074 27.6844 48.9922 27.6844C49.4059 27.6844 49.7574 27.7341 50.047 27.8333C50.3365 27.9326 50.6633 28.0484 51.0272 28.1808C51.201 28.2387 51.3747 28.2842 51.5484 28.3173C51.7221 28.3421 51.9 28.3628 52.082 28.3793C52.0902 28.5613 52.1027 28.7474 52.1192 28.9377C52.1357 29.1197 52.1564 29.3058 52.1812 29.4961C52.1978 29.6533 52.2267 29.8146 52.2681 29.98C52.3095 30.1455 52.3301 30.3109 52.3301 30.4764C52.3301 30.6335 52.2722 30.7493 52.1564 30.8238C52.0489 30.8983 51.9248 30.9355 51.7842 30.9355C51.5525 30.9355 51.3912 30.8403 51.3002 30.6501C51.2754 30.5839 51.2589 30.5136 51.2506 30.4391C51.2423 30.3564 51.2299 30.2861 51.2134 30.2282C51.1555 29.9635 51.0521 29.6781 50.9032 29.372C50.7625 29.0576 50.5929 28.8095 50.3944 28.6275C50.2372 28.4869 50.0222 28.3628 49.7492 28.2552C49.4762 28.1394 49.2321 28.0815 49.0171 28.0815C48.8102 28.0815 48.6158 28.127 48.4339 28.218C48.2601 28.309 48.0906 28.4207 47.9251 28.553C47.5694 28.8508 47.2881 29.2065 47.0813 29.6202C46.8745 30.0338 46.7297 30.4764 46.647 30.9479C46.5643 31.4111 46.5229 31.8661 46.5229 32.3128C46.5229 32.6106 46.5395 32.9084 46.5726 33.2062C46.6139 33.4958 46.676 33.7853 46.7587 34.0748C46.8745 34.4636 47.04 34.8318 47.255 35.1792C47.4784 35.5184 47.7514 35.7955 48.074 36.0106C48.4049 36.2174 48.7854 36.3208 49.2156 36.3208C49.8278 36.3208 50.382 36.1678 50.8783 35.8617C51.383 35.5556 51.8007 35.1544 52.1316 34.658C52.1812 34.5753 52.2309 34.505 52.2805 34.4471C52.3384 34.3809 52.4211 34.3478 52.5287 34.3478C52.6362 34.3478 52.7148 34.3892 52.7644 34.4719C52.8224 34.5546 52.8513 34.6415 52.8513 34.7325ZM60.7135 32.3128C60.7135 31.9985 60.6887 31.651 60.639 31.2705C60.5894 30.8817 60.5067 30.497 60.3909 30.1165C60.2751 29.736 60.1179 29.3885 59.9193 29.0742C59.7208 28.7516 59.4726 28.4951 59.1748 28.3049C58.8853 28.1063 58.5379 28.0071 58.1325 28.0071C57.7272 28.0071 57.3756 28.1063 57.0778 28.3049C56.78 28.4951 56.5277 28.7516 56.3209 29.0742C56.1223 29.3885 55.961 29.736 55.8369 30.1165C55.7128 30.497 55.6218 30.8817 55.5639 31.2705C55.5143 31.651 55.4895 31.9985 55.4895 32.3128C55.4895 32.6272 55.5184 32.9746 55.5763 33.3551C55.6343 33.7274 55.7252 34.1038 55.8493 34.4843C55.9734 34.8566 56.1347 35.1999 56.3333 35.5142C56.5401 35.8203 56.7924 36.0685 57.0902 36.2588C57.388 36.4407 57.7354 36.5317 58.1325 36.5317C58.5461 36.5317 58.8977 36.4407 59.1872 36.2588C59.485 36.0685 59.7291 35.8203 59.9193 35.5142C60.1179 35.2082 60.2751 34.869 60.3909 34.4967C60.5067 34.1245 60.5894 33.7481 60.639 33.3676C60.6887 32.987 60.7135 32.6355 60.7135 32.3128ZM62.5127 32.288C62.5127 33.2228 62.3473 34.0376 62.0164 34.7325C61.6855 35.4274 61.1933 35.9651 60.5398 36.3456C59.8945 36.7261 59.0921 36.9164 58.1325 36.9164C57.1895 36.9164 56.3912 36.7261 55.7377 36.3456C55.0841 35.9568 54.5878 35.4191 54.2486 34.7325C53.9095 34.0376 53.7399 33.2311 53.7399 32.3128C53.7399 31.6676 53.8391 31.0637 54.0377 30.5012C54.2445 29.9304 54.5382 29.4299 54.9187 28.9997C55.3075 28.5696 55.7707 28.2345 56.3085 27.9946C56.8544 27.7547 57.4624 27.6348 58.1325 27.6348C59.0756 27.6348 59.8738 27.8333 60.5274 28.2304C61.1809 28.6192 61.6731 29.1652 62.004 29.8683C62.3432 30.5632 62.5127 31.3698 62.5127 32.288ZM68.9815 33.1318C68.7498 32.4286 68.51 31.7296 68.2618 31.0347C68.0219 30.3399 67.7903 29.6408 67.5669 28.9377C67.327 29.6408 67.0871 30.3399 66.8472 31.0347C66.6156 31.7296 66.3798 32.4286 66.1399 33.1318H68.9815ZM72.704 36.6931C72.704 36.8171 72.6255 36.8792 72.4683 36.8792C72.4187 36.8792 72.369 36.8792 72.3194 36.8792C72.2697 36.8792 72.216 36.875 72.1581 36.8668C71.9513 36.8502 71.7362 36.842 71.5128 36.842C71.2977 36.842 71.0827 36.842 70.8676 36.842C70.5946 36.842 70.3216 36.842 70.0486 36.842C69.7756 36.842 69.4985 36.8502 69.2172 36.8668C69.1841 36.875 69.1511 36.8792 69.118 36.8792C69.0849 36.8792 69.0518 36.8792 69.0187 36.8792C68.9029 36.8792 68.845 36.8213 68.845 36.7055C68.845 36.6062 68.8781 36.5483 68.9443 36.5317C69.0187 36.5069 69.1014 36.4987 69.1924 36.5069C69.2834 36.5152 69.3579 36.5193 69.4158 36.5193C69.5647 36.5193 69.6722 36.4904 69.7384 36.4325C69.8129 36.3663 69.8501 36.2546 69.8501 36.0974C69.8501 36.0064 69.8211 35.8493 69.7632 35.6259C69.7053 35.3943 69.635 35.142 69.5523 34.869C69.4695 34.596 69.3868 34.3437 69.3041 34.1121C69.2296 33.8722 69.1759 33.7026 69.1428 33.6033H65.9786C65.9621 33.653 65.9248 33.7646 65.8669 33.9384C65.809 34.1121 65.7387 34.3147 65.656 34.5464C65.5815 34.778 65.5071 35.0055 65.4326 35.2288C65.3582 35.4522 65.2961 35.6466 65.2465 35.812C65.1969 35.9692 65.172 36.0644 65.172 36.0974C65.172 36.2546 65.2134 36.3622 65.2961 36.4201C65.3789 36.478 65.4823 36.5111 65.6063 36.5193C65.7304 36.5193 65.8504 36.5193 65.9662 36.5193C66.0076 36.5193 66.0406 36.5483 66.0655 36.6062C66.0903 36.6558 66.1027 36.7013 66.1027 36.7427C66.1027 36.7923 66.082 36.8295 66.0406 36.8544C66.0076 36.8792 65.9703 36.8916 65.929 36.8916C65.656 36.8916 65.383 36.8833 65.11 36.8668C64.8453 36.8585 64.5806 36.8544 64.3159 36.8544C64.1835 36.8544 64.0511 36.8585 63.9188 36.8668C63.7864 36.875 63.6499 36.8792 63.5093 36.8792C63.4679 36.8792 63.4266 36.8626 63.3852 36.8295C63.3438 36.7965 63.3232 36.7592 63.3232 36.7179C63.3232 36.6269 63.3563 36.569 63.4224 36.5442C63.4886 36.5193 63.5631 36.5111 63.6458 36.5193C63.7368 36.5193 63.8112 36.5193 63.8691 36.5193C63.9767 36.5193 64.0635 36.478 64.1297 36.3952C64.2042 36.3043 64.2579 36.2174 64.291 36.1347C64.7791 34.9104 65.2424 33.6819 65.6808 32.4493C66.1192 31.2085 66.5453 29.9635 66.9589 28.7143C66.992 28.6233 67.0333 28.4951 67.083 28.3297C67.1326 28.1642 67.1574 28.0401 67.1574 27.9574C67.1574 27.9078 67.145 27.8664 67.1202 27.8333C67.1036 27.792 67.0954 27.7547 67.0954 27.7217C67.0954 27.6886 67.1367 27.6638 67.2195 27.6472C67.3022 27.6307 67.389 27.6183 67.48 27.61C67.571 27.6017 67.6289 27.5976 67.6538 27.5976C67.8275 27.5728 67.9971 27.5479 68.1625 27.5231C68.3362 27.4983 68.51 27.4776 68.6837 27.4611L71.7238 36.0354C71.7899 36.2339 71.8768 36.3622 71.9844 36.4201C72.1002 36.4697 72.2532 36.4945 72.4435 36.4945C72.5179 36.4945 72.58 36.5069 72.6296 36.5317C72.6792 36.5483 72.704 36.6021 72.704 36.6931ZM79.8193 34.534C79.8193 35.0138 79.7118 35.415 79.4967 35.7376C79.2816 36.0519 78.9962 36.3001 78.6405 36.4821C78.293 36.6641 77.9125 36.7923 77.4989 36.8668C77.0853 36.9412 76.6799 36.9785 76.2829 36.9785C75.9768 36.9785 75.6831 36.933 75.4018 36.842C75.1206 36.7592 74.8352 36.6641 74.5457 36.5566C74.405 36.5069 74.2644 36.478 74.1238 36.4697C73.9914 36.4532 73.8508 36.4449 73.7019 36.4449C73.6771 36.2463 73.6522 36.0519 73.6274 35.8617C73.6026 35.6631 73.5736 35.4646 73.5406 35.2661C73.524 35.1254 73.5033 34.9889 73.4785 34.8566C73.4537 34.7242 73.4413 34.5919 73.4413 34.4595C73.4413 34.3437 73.462 34.2486 73.5033 34.1741C73.553 34.0997 73.6398 34.0624 73.7639 34.0624C73.8797 34.0624 73.9666 34.0873 74.0245 34.1369C74.0907 34.1782 74.1403 34.2527 74.1734 34.3602C74.2313 34.5091 74.2768 34.6622 74.3099 34.8194C74.3513 34.9765 74.4009 35.1337 74.4588 35.2909C74.5994 35.6797 74.8269 35.9899 75.1413 36.2215C75.4639 36.4532 75.8403 36.569 76.2704 36.569C76.8495 36.569 77.2921 36.4035 77.5982 36.0726C77.9125 35.7335 78.0697 35.2785 78.0697 34.7077C78.0697 34.3768 77.9994 34.1038 77.8587 33.8887C77.7181 33.6654 77.5361 33.4751 77.3128 33.3179C77.0894 33.1607 76.8495 33.0118 76.5931 32.8712C76.3532 32.7389 76.1091 32.6148 75.861 32.499C75.6128 32.3831 75.3688 32.2632 75.1289 32.1391C74.8641 31.9985 74.6036 31.8248 74.3471 31.6179C74.0989 31.4029 73.8921 31.1588 73.7267 30.8858C73.5695 30.6046 73.4909 30.3026 73.4909 29.98C73.4909 29.434 73.6316 28.9832 73.9128 28.6275C74.2024 28.2718 74.5705 28.0071 75.0172 27.8333C75.4722 27.6596 75.9437 27.5728 76.4318 27.5728C76.7461 27.5728 77.048 27.6183 77.3376 27.7092C77.6354 27.792 77.9249 27.8912 78.2062 28.0071C78.2972 28.0401 78.3799 28.065 78.4544 28.0815C78.5371 28.0981 78.6239 28.1063 78.7149 28.1063C78.7811 28.1063 78.8432 28.1063 78.9011 28.1063C78.959 28.0981 79.0169 28.0898 79.0748 28.0815C79.0996 28.3462 79.1286 28.6109 79.1616 28.8757C79.1947 29.1404 79.2278 29.4051 79.2609 29.6698C79.2692 29.7112 79.2733 29.7567 79.2733 29.8063C79.2816 29.8477 79.2857 29.889 79.2857 29.9304C79.2857 30.0462 79.2609 30.1537 79.2113 30.253C79.1616 30.344 79.0665 30.3895 78.9259 30.3895C78.8183 30.3895 78.7398 30.3647 78.6901 30.315C78.6405 30.2654 78.595 30.1951 78.5536 30.1041C78.4544 29.8477 78.3592 29.5954 78.2682 29.3472C78.1772 29.099 78.0449 28.8674 77.8712 28.6523C77.6892 28.4207 77.4617 28.2511 77.1887 28.1435C76.9157 28.0277 76.6344 27.9698 76.3449 27.9698C76.0636 27.9698 75.8279 28.0484 75.6376 28.2056C75.4473 28.3545 75.3067 28.5489 75.2157 28.7888C75.1247 29.0287 75.0792 29.2769 75.0792 29.5333C75.0792 29.9304 75.1826 30.2406 75.3894 30.464C75.6045 30.679 75.8692 30.8776 76.1836 31.0596C76.3573 31.1506 76.531 31.2416 76.7047 31.3326C76.8867 31.4153 77.0646 31.498 77.2383 31.5807C77.6519 31.771 78.0531 32.0026 78.4419 32.2756C78.839 32.5403 79.1658 32.8588 79.4222 33.2311C79.6869 33.595 79.8193 34.0293 79.8193 34.534ZM88.7007 29.98C88.7007 30.0627 88.68 30.1413 88.6387 30.2158C88.5973 30.282 88.5311 30.315 88.4401 30.315C88.3078 30.315 88.2168 30.2861 88.1672 30.2282C88.1258 30.1703 88.0886 30.0876 88.0555 29.98C88.0307 29.8642 87.9893 29.7236 87.9314 29.5581C87.8818 29.3844 87.8239 29.2148 87.7577 29.0494C87.6998 28.8757 87.6377 28.7433 87.5716 28.6523C87.5385 28.6027 87.5012 28.5572 87.4599 28.5158C87.4185 28.4662 87.3771 28.4207 87.3358 28.3793C87.2779 28.3049 87.1745 28.2552 87.0256 28.2304C86.8767 28.1973 86.7236 28.1808 86.5665 28.1808C86.4093 28.1725 86.2852 28.1684 86.1942 28.1684C86.0867 28.1684 85.9708 28.1684 85.8468 28.1684C85.7227 28.1684 85.6151 28.1973 85.5241 28.2552C85.4331 28.3049 85.3835 28.4041 85.3752 28.553C85.367 28.8343 85.3628 29.1238 85.3628 29.4216C85.3628 29.7112 85.3628 30.0007 85.3628 30.2902C85.3628 31.2333 85.3628 32.1763 85.3628 33.1194C85.3711 34.0624 85.3752 35.0055 85.3752 35.9485C85.3752 36.0478 85.3876 36.1636 85.4125 36.296C85.4455 36.4283 85.5283 36.4945 85.6606 36.4945C85.7847 36.4945 85.9047 36.4904 86.0205 36.4821C86.1446 36.4738 86.2686 36.4697 86.3927 36.4697C86.4589 36.4697 86.5085 36.4987 86.5416 36.5566C86.5747 36.6062 86.5913 36.6558 86.5913 36.7055C86.5913 36.8544 86.521 36.9288 86.3803 36.9288C86.2893 36.9288 86.1942 36.9247 86.0949 36.9164C86.0039 36.9081 85.9129 36.8999 85.8219 36.8916C85.6648 36.875 85.5076 36.8668 85.3504 36.8668C85.1932 36.8668 85.0319 36.8668 84.8665 36.8668C84.5935 36.8668 84.3205 36.8668 84.0475 36.8668C83.7745 36.8668 83.5015 36.875 83.2286 36.8916C83.1293 36.8999 83.0259 36.9081 82.9183 36.9164C82.8191 36.9247 82.7198 36.9288 82.6205 36.9288C82.5461 36.9288 82.4882 36.904 82.4468 36.8544C82.4054 36.8047 82.3848 36.7468 82.3848 36.6806C82.3848 36.5896 82.422 36.5359 82.4964 36.5193C82.5709 36.4945 82.6412 36.4821 82.7074 36.4821C82.7984 36.4821 82.8811 36.4862 82.9556 36.4945C83.0383 36.4945 83.121 36.4945 83.2037 36.4945C83.4188 36.4945 83.5388 36.4449 83.5636 36.3456C83.5967 36.2463 83.6132 36.1057 83.6132 35.9237V28.9997C83.6132 28.6771 83.5967 28.462 83.5636 28.3545C83.5305 28.2387 83.4436 28.1808 83.303 28.1808C83.1624 28.1725 82.9307 28.1684 82.6081 28.1684C82.5006 28.1684 82.3517 28.1725 82.1614 28.1808C81.9794 28.189 81.8429 28.218 81.7519 28.2676C81.6444 28.3255 81.5575 28.4041 81.4914 28.5034C81.4252 28.5944 81.3714 28.6978 81.33 28.8136C81.2639 29.0039 81.1977 29.1983 81.1315 29.3968C81.0736 29.5954 81.0116 29.7898 80.9454 29.98C80.9123 30.0958 80.8709 30.1827 80.8213 30.2406C80.7717 30.2902 80.6807 30.315 80.5483 30.315C80.3911 30.315 80.3125 30.2323 80.3125 30.0669C80.3125 29.8518 80.3332 29.6078 80.3746 29.3348C80.4242 29.0535 80.4532 28.7929 80.4614 28.553C80.4697 28.4207 80.4697 28.2883 80.4614 28.156C80.4614 28.0153 80.4738 27.883 80.4987 27.7589C80.5069 27.701 80.5359 27.672 80.5855 27.672C80.6765 27.672 80.7675 27.6844 80.8585 27.7092C80.9578 27.7341 81.0529 27.7547 81.1439 27.7713C81.2432 27.7796 81.3424 27.7878 81.4417 27.7961C81.5493 27.7961 81.6568 27.8002 81.7643 27.8085C82.2028 27.8168 82.6578 27.8251 83.1293 27.8333C83.6091 27.8333 84.0641 27.8333 84.4942 27.8333C84.9823 27.8333 85.4952 27.8292 86.0329 27.8209C86.5706 27.8127 87.0835 27.8085 87.5716 27.8085C87.6212 27.8085 87.6708 27.8085 87.7205 27.8085C87.7784 27.8085 87.8321 27.8044 87.8818 27.7961C87.9728 27.7796 88.0596 27.7547 88.1423 27.7217C88.2333 27.6886 88.3243 27.672 88.4153 27.672C88.4567 27.672 88.4856 27.6927 88.5022 27.7341C88.527 27.8499 88.5436 27.9864 88.5518 28.1435C88.5601 28.2925 88.5684 28.4248 88.5766 28.5406C88.6015 28.7722 88.6263 29.0121 88.6511 29.2603C88.6842 29.5002 88.7007 29.7401 88.7007 29.98ZM96.8833 33.9632C96.8833 34.0955 96.875 34.2279 96.8585 34.3602C96.8419 34.4926 96.8254 34.6291 96.8089 34.7697C96.7758 35.0593 96.7385 35.3488 96.6972 35.6383C96.6558 35.9279 96.6227 36.2174 96.5979 36.5069C96.5979 36.5896 96.5814 36.66 96.5483 36.7179C96.5069 36.7758 96.4449 36.8089 96.3621 36.8171C96.2794 36.8337 96.205 36.842 96.1388 36.842C96.0395 36.842 95.9403 36.8378 95.841 36.8295C95.7417 36.8295 95.6383 36.8295 95.5308 36.8295C95.0096 36.8213 94.4885 36.8171 93.9673 36.8171C93.4461 36.8171 92.925 36.8171 92.4038 36.8171H90.9892C90.8072 36.8171 90.6253 36.8171 90.4433 36.8171C90.2695 36.8171 90.0917 36.8213 89.9097 36.8295C89.8187 36.8378 89.7277 36.842 89.6367 36.842C89.5457 36.8502 89.4547 36.8544 89.3637 36.8544C89.2893 36.8544 89.2231 36.8337 89.1652 36.7923C89.1155 36.751 89.0907 36.6931 89.0907 36.6186C89.0907 36.5359 89.1155 36.4738 89.1652 36.4325C89.2231 36.3911 89.2851 36.3704 89.3513 36.3704C89.4175 36.3704 89.4837 36.3746 89.5498 36.3828C89.6243 36.3911 89.6946 36.3952 89.7608 36.3952C89.8931 36.3952 89.9965 36.3787 90.071 36.3456C90.1455 36.3043 90.1827 36.2091 90.1827 36.0602C90.1827 34.778 90.1827 33.4958 90.1827 32.2136C90.1827 30.9231 90.1785 29.6408 90.1703 28.3669C90.1703 28.2676 90.1496 28.2056 90.1082 28.1808C90.0751 28.1477 90.0131 28.1311 89.9221 28.1311C89.8311 28.1311 89.736 28.1353 89.6367 28.1435C89.5457 28.1518 89.4506 28.156 89.3513 28.156C89.2934 28.156 89.2396 28.1353 89.19 28.0939C89.1404 28.0526 89.1155 27.9988 89.1155 27.9326C89.1155 27.7754 89.1983 27.6968 89.3637 27.6968C89.4547 27.6968 89.5498 27.701 89.6491 27.7092C89.7484 27.7175 89.8476 27.7258 89.9469 27.7341C90.1455 27.7423 90.3399 27.7506 90.5301 27.7589C90.7287 27.7589 90.9272 27.7589 91.1257 27.7589C91.2912 27.7589 91.4525 27.7589 91.6097 27.7589C91.7751 27.7589 91.9364 27.7547 92.0936 27.7465C92.2094 27.7382 92.3211 27.7299 92.4286 27.7217C92.5362 27.7051 92.6437 27.6968 92.7513 27.6968C92.8836 27.6968 92.9498 27.7672 92.9498 27.9078C92.9498 27.9657 92.9332 28.0236 92.9002 28.0815C92.8671 28.1311 92.8174 28.156 92.7513 28.156C92.6437 28.156 92.5362 28.1518 92.4286 28.1435C92.3294 28.1353 92.2218 28.1311 92.106 28.1311C92.015 28.1311 91.9571 28.156 91.9323 28.2056C91.9157 28.247 91.9075 28.309 91.9075 28.3917C91.9075 28.6978 91.9033 28.9997 91.8951 29.2975C91.8951 29.5954 91.8951 29.8973 91.8951 30.2034C91.8951 31.163 91.8951 32.1267 91.8951 33.0946C91.9033 34.0624 91.9075 35.0262 91.9075 35.9858C91.9075 36.0685 91.9282 36.1471 91.9695 36.2215C92.0109 36.296 92.0729 36.3456 92.1556 36.3704C92.2632 36.3952 92.3749 36.4077 92.4907 36.4077C92.6065 36.4077 92.7182 36.4077 92.8257 36.4077C93.4461 36.4077 93.9838 36.3456 94.4388 36.2215C94.8938 36.0974 95.2785 35.87 95.5928 35.5391C95.9154 35.1999 96.1802 34.7118 96.387 34.0748C96.4118 34.0004 96.4449 33.9342 96.4862 33.8763C96.5276 33.8101 96.5896 33.777 96.6724 33.777C96.722 33.777 96.7675 33.7936 96.8089 33.8267C96.8585 33.8598 96.8833 33.9053 96.8833 33.9632ZM101.374 27.9698C101.374 28.1105 101.308 28.1808 101.176 28.1808C101.076 28.1808 100.973 28.1808 100.865 28.1808C100.766 28.1725 100.667 28.1684 100.568 28.1684C100.485 28.1684 100.427 28.2056 100.394 28.28C100.361 28.3462 100.344 28.4165 100.344 28.491C100.344 28.7805 100.34 29.0742 100.332 29.372C100.332 29.6615 100.332 29.9511 100.332 30.2406C100.332 31.1506 100.332 32.0647 100.332 32.9829C100.34 33.8929 100.344 34.8028 100.344 35.7128C100.344 35.7707 100.34 35.8617 100.332 35.9858C100.324 36.1099 100.332 36.2257 100.357 36.3332C100.39 36.4325 100.452 36.4821 100.543 36.4821C100.65 36.4821 100.758 36.478 100.865 36.4697C100.973 36.4614 101.081 36.4573 101.188 36.4573C101.246 36.4573 101.287 36.4821 101.312 36.5317C101.337 36.5731 101.349 36.6227 101.349 36.6806C101.349 36.7386 101.329 36.7882 101.287 36.8295C101.254 36.8792 101.205 36.904 101.138 36.904C100.857 36.904 100.576 36.8999 100.295 36.8916C100.022 36.8833 99.7446 36.8792 99.4633 36.8792C99.1821 36.8792 98.9008 36.8833 98.6195 36.8916C98.3383 36.8999 98.057 36.904 97.7758 36.904C97.693 36.904 97.6393 36.8875 97.6144 36.8544C97.5896 36.8213 97.5772 36.7675 97.5772 36.6931C97.5772 36.6269 97.5896 36.5731 97.6144 36.5317C97.6475 36.4821 97.6972 36.4573 97.7633 36.4573C97.8543 36.4573 97.9453 36.4614 98.0363 36.4697C98.1273 36.478 98.2142 36.4821 98.2969 36.4821C98.4127 36.4821 98.4913 36.4449 98.5327 36.3704C98.574 36.296 98.5989 36.2091 98.6071 36.1099C98.6154 36.0023 98.6195 35.9113 98.6195 35.8369L98.6319 28.7143C98.6319 28.6399 98.6237 28.5324 98.6071 28.3917C98.5906 28.2428 98.5327 28.1642 98.4334 28.156C98.4086 28.156 98.3838 28.156 98.359 28.156C98.3424 28.156 98.3217 28.156 98.2969 28.156C98.2142 28.156 98.1315 28.1601 98.0487 28.1684C97.9743 28.1766 97.8957 28.1808 97.813 28.1808C97.6558 28.1808 97.5772 28.1022 97.5772 27.945C97.5772 27.8871 97.5938 27.8375 97.6268 27.7961C97.6682 27.7547 97.7178 27.7341 97.7758 27.7341C98.1315 27.7341 98.483 27.7423 98.8305 27.7589C99.1862 27.7754 99.5419 27.7837 99.8976 27.7837C100.113 27.7837 100.328 27.7754 100.543 27.7589C100.766 27.7423 100.985 27.7341 101.201 27.7341C101.267 27.7341 101.312 27.7589 101.337 27.8085C101.362 27.8582 101.374 27.9119 101.374 27.9698ZM111.724 27.9078C111.724 28.065 111.645 28.1435 111.488 28.1435C111.422 28.1435 111.356 28.1394 111.29 28.1311C111.224 28.1229 111.157 28.1187 111.091 28.1187C111.058 28.1187 111.021 28.1229 110.98 28.1311C110.938 28.1311 110.897 28.1311 110.855 28.1311C110.773 28.1311 110.719 28.1849 110.694 28.2925C110.669 28.3917 110.657 28.5034 110.657 28.6275C110.657 28.7433 110.657 28.826 110.657 28.8757V36.6062C110.657 36.6641 110.649 36.7137 110.632 36.7551C110.624 36.7965 110.582 36.8213 110.508 36.8295C110.392 36.8461 110.268 36.8502 110.136 36.842C110.003 36.842 109.879 36.8461 109.763 36.8544C109.697 36.6393 109.602 36.4325 109.478 36.2339C109.362 36.0354 109.238 35.8451 109.106 35.6631C108.345 34.5546 107.538 33.4834 106.686 32.4493C105.842 31.4153 105.032 30.3523 104.254 29.2603C104.254 30.3771 104.25 31.4939 104.242 32.6106C104.242 33.7191 104.242 34.8318 104.242 35.9485C104.242 36.023 104.25 36.1181 104.266 36.2339C104.291 36.3415 104.353 36.3952 104.453 36.3952C104.568 36.3952 104.684 36.3911 104.8 36.3828C104.924 36.3746 105.04 36.3704 105.148 36.3704C105.214 36.3704 105.255 36.4035 105.272 36.4697C105.296 36.5276 105.309 36.5772 105.309 36.6186C105.309 36.6765 105.292 36.7303 105.259 36.7799C105.234 36.8295 105.189 36.8544 105.123 36.8544C104.982 36.8544 104.841 36.8461 104.701 36.8295C104.56 36.813 104.42 36.8047 104.279 36.8047C104.089 36.8047 103.894 36.8089 103.696 36.8171C103.497 36.8171 103.303 36.8254 103.113 36.842C103.038 36.8502 102.964 36.8544 102.889 36.8544C102.823 36.8626 102.757 36.8668 102.691 36.8668C102.525 36.8668 102.442 36.7799 102.442 36.6062C102.442 36.54 102.467 36.4862 102.517 36.4449C102.567 36.3952 102.62 36.3704 102.678 36.3704C102.761 36.3704 102.84 36.3787 102.914 36.3952C102.988 36.4035 103.067 36.4077 103.15 36.4077C103.274 36.4077 103.365 36.3911 103.423 36.358C103.489 36.3167 103.522 36.2215 103.522 36.0726C103.522 34.931 103.53 33.7894 103.547 32.6479C103.572 31.5063 103.584 30.3647 103.584 29.2231C103.584 29.1156 103.584 29.0121 103.584 28.9129C103.584 28.8136 103.584 28.7102 103.584 28.6027C103.584 28.4951 103.563 28.3876 103.522 28.28C103.489 28.1725 103.406 28.1187 103.274 28.1187C103.175 28.1187 103.071 28.1229 102.964 28.1311C102.864 28.1394 102.761 28.1435 102.653 28.1435C102.513 28.1435 102.442 28.065 102.442 27.9078C102.442 27.7589 102.517 27.6844 102.666 27.6844C102.881 27.6844 103.096 27.6886 103.311 27.6968C103.526 27.7051 103.737 27.7092 103.944 27.7092C104.134 27.7092 104.324 27.7092 104.515 27.7092C104.713 27.701 104.908 27.6968 105.098 27.6968C105.586 28.3586 106.099 28.9997 106.637 29.6202C107.183 30.2323 107.704 30.8652 108.2 31.5187C108.49 31.9075 108.783 32.2963 109.081 32.6851C109.379 33.0739 109.681 33.4586 109.987 33.8391C109.987 32.9622 109.987 32.0853 109.987 31.2085C109.995 30.3316 109.999 29.4547 109.999 28.5778C109.999 28.5034 109.987 28.4124 109.962 28.3049C109.945 28.189 109.883 28.1311 109.776 28.1311H109.441C109.391 28.1311 109.342 28.1394 109.292 28.156C109.242 28.1642 109.193 28.1684 109.143 28.1684C108.986 28.1684 108.907 28.0815 108.907 27.9078C108.907 27.8085 108.936 27.7506 108.994 27.7341C109.052 27.7092 109.122 27.6968 109.205 27.6968C109.371 27.6968 109.532 27.701 109.689 27.7092C109.854 27.7175 110.016 27.7217 110.173 27.7217C110.388 27.7217 110.603 27.7134 110.818 27.6968C111.042 27.6803 111.261 27.672 111.476 27.672C111.542 27.672 111.6 27.6968 111.65 27.7465C111.699 27.7878 111.724 27.8416 111.724 27.9078ZM119.942 34.6829C119.942 34.8152 119.925 34.9517 119.892 35.0923C119.867 35.2247 119.847 35.3612 119.83 35.5018C119.814 35.659 119.793 35.8203 119.768 35.9858C119.752 36.1512 119.735 36.3167 119.719 36.4821C119.694 36.6145 119.657 36.7055 119.607 36.7551C119.557 36.7965 119.462 36.8171 119.321 36.8171C118.478 36.8171 117.634 36.813 116.79 36.8047C115.946 36.7882 115.103 36.7799 114.259 36.7799C113.969 36.7799 113.68 36.7923 113.39 36.8171C113.101 36.8502 112.811 36.8668 112.522 36.8668C112.381 36.8668 112.311 36.7965 112.311 36.6558C112.311 36.5152 112.373 36.4449 112.497 36.4449C112.621 36.4366 112.753 36.4242 112.894 36.4077C113.059 36.3911 113.192 36.3291 113.291 36.2215C113.398 36.1057 113.452 35.8741 113.452 35.5266V28.8384C113.452 28.7061 113.427 28.5778 113.378 28.4538C113.336 28.3297 113.233 28.2676 113.068 28.2676C112.968 28.2676 112.869 28.2718 112.77 28.28C112.67 28.28 112.571 28.28 112.472 28.28C112.265 28.28 112.162 28.1808 112.162 27.9822C112.162 27.883 112.195 27.8209 112.261 27.7961C112.327 27.763 112.402 27.7465 112.484 27.7465C112.724 27.7465 112.96 27.7547 113.192 27.7713C113.423 27.7796 113.655 27.7837 113.887 27.7837C114.664 27.7837 115.442 27.7796 116.219 27.7713C116.997 27.7547 117.775 27.7465 118.552 27.7465C118.701 27.7465 118.85 27.7423 118.999 27.7341C119.148 27.7175 119.297 27.701 119.446 27.6844C119.462 27.8168 119.479 27.9491 119.495 28.0815C119.52 28.2139 119.541 28.3462 119.557 28.4786C119.582 28.6358 119.615 28.8012 119.657 28.9749C119.706 29.1486 119.731 29.3182 119.731 29.4837C119.731 29.5829 119.69 29.6657 119.607 29.7318C119.524 29.7898 119.437 29.8187 119.346 29.8187C119.148 29.8187 119.015 29.7318 118.949 29.5581C118.825 29.1693 118.639 28.8467 118.391 28.5903C118.151 28.3255 117.812 28.1932 117.373 28.1932H115.14V31.8413C115.454 31.8413 115.76 31.8372 116.058 31.8289C116.364 31.8206 116.67 31.8041 116.976 31.7793C117.282 31.7544 117.576 31.7048 117.857 31.6304C117.973 31.6055 118.093 31.5725 118.217 31.5311C118.349 31.4897 118.474 31.469 118.589 31.469C118.689 31.469 118.738 31.5145 118.738 31.6055C118.738 31.6634 118.722 31.7503 118.689 31.8661C118.664 31.9819 118.643 32.0688 118.627 32.1267C118.585 32.2342 118.544 32.3004 118.503 32.3252C118.461 32.3418 118.387 32.3501 118.279 32.3501C118.081 32.3501 117.886 32.3376 117.696 32.3128C117.382 32.2797 117.063 32.2591 116.741 32.2508C116.418 32.2342 116.095 32.226 115.773 32.226C115.591 32.226 115.438 32.2756 115.314 32.3749C115.198 32.4659 115.14 32.6106 115.14 32.8092V35.8617C115.14 36.0602 115.165 36.2008 115.214 36.2836C115.272 36.3663 115.405 36.4077 115.611 36.4077C115.835 36.4077 116.083 36.4077 116.356 36.4077C116.629 36.4077 116.906 36.3952 117.187 36.3704C117.477 36.3456 117.746 36.2918 117.994 36.2091C118.242 36.1264 118.449 36.0023 118.614 35.8369C118.755 35.6962 118.891 35.5101 119.024 35.2785C119.156 35.0468 119.264 34.84 119.346 34.658C119.388 34.5588 119.429 34.4926 119.47 34.4595C119.512 34.4181 119.586 34.3975 119.694 34.3975C119.793 34.3975 119.859 34.4223 119.892 34.4719C119.925 34.5216 119.942 34.5919 119.942 34.6829ZM50.3076 46.323C50.3076 45.9921 50.2703 45.6654 50.1959 45.3427C50.1297 45.0118 49.9932 44.7347 49.7864 44.5114C49.5879 44.288 49.2818 44.1763 48.8682 44.1763C48.5869 44.1763 48.3056 44.1846 48.0244 44.2012C47.7514 44.2094 47.4743 44.2136 47.193 44.2136V48.0974C47.193 48.3291 47.2509 48.4656 47.3667 48.5069C47.4908 48.5483 47.6438 48.569 47.8258 48.569C47.9251 48.569 48.0244 48.569 48.1236 48.569C48.2312 48.569 48.3346 48.5648 48.4339 48.5566C48.8475 48.5317 49.1908 48.4159 49.4638 48.2091C49.745 48.0023 49.956 47.7335 50.0966 47.4026C50.2372 47.0717 50.3076 46.7118 50.3076 46.323ZM49.6871 41.8932C49.6871 41.4051 49.6127 41.037 49.4638 40.7888C49.3231 40.5324 49.1039 40.3628 48.8061 40.28C48.5083 40.189 48.1361 40.1435 47.6893 40.1435C47.6066 40.1435 47.5239 40.1477 47.4412 40.156C47.3584 40.156 47.2757 40.1601 47.193 40.1684V43.8413H47.5528C47.7183 43.8413 47.9003 43.8372 48.0988 43.8289C48.2974 43.8123 48.4876 43.7751 48.6696 43.7172C48.8599 43.6593 49.0171 43.5683 49.1411 43.4442C49.3314 43.254 49.4679 43.0141 49.5506 42.7245C49.6416 42.435 49.6871 42.1579 49.6871 41.8932ZM52.082 46.1121C52.082 46.6746 51.9496 47.1751 51.6849 47.6135C51.4285 48.0437 51.0355 48.3704 50.5061 48.5938C50.2083 48.7261 49.8733 48.8089 49.501 48.842C49.137 48.8833 48.7937 48.904 48.4711 48.904C48.3966 48.904 48.3222 48.904 48.2477 48.904C48.1733 48.904 48.0988 48.8999 48.0244 48.8916C47.4205 48.8668 46.8125 48.8544 46.2003 48.8544C45.9687 48.8544 45.7371 48.8626 45.5054 48.8792C45.2738 48.904 45.038 48.9164 44.7981 48.9164C44.7651 48.9164 44.7361 48.8999 44.7113 48.8668C44.6865 48.842 44.6741 48.813 44.6741 48.7799C44.6741 48.6806 44.7113 48.6227 44.7857 48.6062C44.8685 48.5814 44.9636 48.5607 45.0711 48.5442C45.1787 48.5276 45.2779 48.478 45.3689 48.3952C45.4599 48.3125 45.5137 48.1553 45.5303 47.9237C45.5385 47.8245 45.5427 47.7252 45.5427 47.6259C45.5427 47.5266 45.5427 47.4274 45.5427 47.3281C45.5427 46.2775 45.5385 45.2311 45.5303 44.1887C45.5303 43.1382 45.5303 42.0876 45.5303 41.037C45.5303 40.673 45.4682 40.4496 45.3441 40.3669C45.22 40.2842 44.9884 40.2428 44.6492 40.2428C44.5913 40.2428 44.5376 40.2221 44.4879 40.1808C44.4466 40.1394 44.4259 40.0898 44.4259 40.0319C44.4259 39.8747 44.5127 39.7961 44.6865 39.7961C44.8519 39.7961 45.0215 39.8044 45.1952 39.8209C45.3689 39.8375 45.5385 39.8457 45.704 39.8457C46.1259 39.8457 46.5478 39.8333 46.9696 39.8085C47.3915 39.7754 47.8134 39.7423 48.2353 39.7092C48.318 39.701 48.3966 39.6968 48.4711 39.6968C48.5538 39.6886 48.6324 39.6844 48.7068 39.6844C49.1784 39.6844 49.6209 39.7423 50.0346 39.8582C50.4565 39.9657 50.7956 40.1684 51.0521 40.4662C51.3168 40.764 51.4491 41.1941 51.4491 41.7567C51.4491 42.0793 51.3623 42.3854 51.1886 42.6749C51.0231 42.9644 50.8122 43.2043 50.5557 43.3946C50.473 43.469 50.382 43.5352 50.2827 43.5931C50.1835 43.6428 50.0801 43.6924 49.9725 43.742C49.956 43.7503 49.9229 43.7669 49.8733 43.7917C49.8319 43.8082 49.8112 43.833 49.8112 43.8661C49.8112 43.8909 49.8319 43.9116 49.8733 43.9282C49.9229 43.9364 49.956 43.9447 49.9725 43.953C50.1049 43.9861 50.2331 44.0233 50.3572 44.0647C50.4813 44.0977 50.6054 44.1474 50.7294 44.2136C51.11 44.3956 51.4285 44.6479 51.6849 44.9705C51.9496 45.2931 52.082 45.6736 52.082 46.1121ZM61.9013 39.945C61.9013 40.0029 61.8806 40.0608 61.8393 40.1187C61.8062 40.1684 61.7566 40.1932 61.6904 40.1932C61.5828 40.1932 61.4753 40.1932 61.3678 40.1932C61.2602 40.1849 61.1527 40.1808 61.0451 40.1808C60.9376 40.1808 60.8714 40.2345 60.8466 40.3421C60.8218 40.4414 60.8094 40.5324 60.8094 40.6151C60.8094 40.6564 60.8094 40.7019 60.8094 40.7516C60.8176 40.7929 60.8218 40.8343 60.8218 40.8757C60.8218 41.6284 60.8218 42.3771 60.8218 43.1216C60.83 43.8661 60.8342 44.6106 60.8342 45.3551C60.8342 46.4471 60.5653 47.3116 60.0276 47.9485C59.4899 48.5772 58.6544 48.8916 57.5211 48.8916C56.4043 48.8916 55.5357 48.6227 54.9153 48.085C54.2949 47.5473 53.9847 46.6994 53.9847 45.5413V44.9829C53.9847 44.2715 53.9847 43.56 53.9847 42.8486C53.9929 42.1289 53.9971 41.4092 53.9971 40.6895C53.9971 40.6151 53.9888 40.5158 53.9722 40.3917C53.9557 40.2594 53.8978 40.189 53.7985 40.1808C53.691 40.1725 53.5793 40.1725 53.4635 40.1808C53.356 40.189 53.2484 40.1932 53.1409 40.1932C53.083 40.1932 53.0292 40.1725 52.9796 40.1311C52.9299 40.0815 52.9051 40.0277 52.9051 39.9698C52.9051 39.9037 52.9258 39.8457 52.9672 39.7961C53.0168 39.7465 53.0747 39.7217 53.1409 39.7217C53.2401 39.7217 53.3353 39.7258 53.4263 39.7341C53.5255 39.7423 53.6207 39.7506 53.7117 39.7589C53.9019 39.7672 54.0922 39.7754 54.2825 39.7837C54.4727 39.7837 54.6589 39.7837 54.8408 39.7837C55.0311 39.7837 55.2131 39.7837 55.3868 39.7837C55.5688 39.7837 55.7508 39.7796 55.9328 39.7713C56.0486 39.763 56.1603 39.7547 56.2678 39.7465C56.3836 39.7299 56.4953 39.7217 56.6029 39.7217C56.669 39.7217 56.7187 39.7465 56.7518 39.7961C56.7931 39.8457 56.8138 39.9037 56.8138 39.9698C56.8138 40.0277 56.7931 40.0815 56.7518 40.1311C56.7187 40.1725 56.669 40.1932 56.6029 40.1932C56.4953 40.1932 56.3878 40.189 56.2802 40.1808C56.181 40.1725 56.0776 40.1684 55.97 40.1684C55.8873 40.1684 55.8335 40.2056 55.8087 40.28C55.7839 40.3462 55.7674 40.4124 55.7591 40.4786C55.7508 40.6109 55.7467 40.7433 55.7467 40.8757C55.7549 41.008 55.7591 41.1404 55.7591 41.2727C55.7591 42.0172 55.7508 42.7618 55.7343 43.5063C55.726 44.2425 55.7219 44.9829 55.7219 45.7274C55.7219 46.0831 55.7343 46.4223 55.7591 46.7449C55.7922 47.0593 55.8666 47.3405 55.9824 47.5887C56.0982 47.8369 56.2802 48.0313 56.5284 48.1719C56.7849 48.3125 57.1364 48.3828 57.5831 48.3828C58.1788 48.3828 58.6544 48.2463 59.0101 47.9734C59.3658 47.6921 59.6223 47.3281 59.7795 46.8814C59.9366 46.4264 60.0152 45.9342 60.0152 45.4048C60.0152 44.5858 59.9987 43.7669 59.9656 42.9479C59.9325 42.1289 59.916 41.31 59.916 40.491C59.916 40.3669 59.887 40.2842 59.8291 40.2428C59.7712 40.1932 59.6843 40.1684 59.5685 40.1684C59.4858 40.1684 59.4031 40.1725 59.3203 40.1808C59.2459 40.189 59.1632 40.1932 59.0722 40.1932C59.0143 40.1932 58.9605 40.1725 58.9109 40.1311C58.8612 40.0898 58.8364 40.036 58.8364 39.9698C58.8364 39.9037 58.8571 39.8457 58.8984 39.7961C58.9481 39.7465 59.006 39.7217 59.0722 39.7217C59.2045 39.7217 59.3327 39.7299 59.4568 39.7465C59.5809 39.7547 59.7091 39.763 59.8415 39.7713C59.9242 39.7796 60.0069 39.7837 60.0897 39.7837C60.1724 39.7837 60.2551 39.7837 60.3378 39.7837C60.4288 39.7837 60.5198 39.7837 60.6108 39.7837C60.7101 39.7837 60.8052 39.7796 60.8962 39.7713C61.0286 39.7713 61.1568 39.763 61.2809 39.7465C61.4133 39.7299 61.5456 39.7217 61.678 39.7217C61.8269 39.7217 61.9013 39.7961 61.9013 39.945ZM66.3418 39.9698C66.3418 40.1105 66.2757 40.1808 66.1433 40.1808C66.044 40.1808 65.9406 40.1808 65.8331 40.1808C65.7338 40.1725 65.6346 40.1684 65.5353 40.1684C65.4526 40.1684 65.3947 40.2056 65.3616 40.28C65.3285 40.3462 65.3119 40.4165 65.3119 40.491C65.3119 40.7805 65.3078 41.0742 65.2995 41.372C65.2995 41.6615 65.2995 41.9511 65.2995 42.2406C65.2995 43.1506 65.2995 44.0647 65.2995 44.9829C65.3078 45.8929 65.3119 46.8028 65.3119 47.7128C65.3119 47.7707 65.3078 47.8617 65.2995 47.9858C65.2913 48.1099 65.2995 48.2257 65.3243 48.3332C65.3574 48.4325 65.4195 48.4821 65.5105 48.4821C65.618 48.4821 65.7256 48.478 65.8331 48.4697C65.9406 48.4614 66.0482 48.4573 66.1557 48.4573C66.2136 48.4573 66.255 48.4821 66.2798 48.5317C66.3046 48.5731 66.317 48.6227 66.317 48.6806C66.317 48.7386 66.2963 48.7882 66.255 48.8295C66.2219 48.8792 66.1723 48.904 66.1061 48.904C65.8248 48.904 65.5436 48.8999 65.2623 48.8916C64.9893 48.8833 64.7122 48.8792 64.4309 48.8792C64.1497 48.8792 63.8684 48.8833 63.5871 48.8916C63.3059 48.8999 63.0246 48.904 62.7434 48.904C62.6606 48.904 62.6069 48.8875 62.582 48.8544C62.5572 48.8213 62.5448 48.7675 62.5448 48.6931C62.5448 48.6269 62.5572 48.5731 62.582 48.5317C62.6151 48.4821 62.6648 48.4573 62.7309 48.4573C62.8219 48.4573 62.9129 48.4614 63.0039 48.4697C63.0949 48.478 63.1818 48.4821 63.2645 48.4821C63.3803 48.4821 63.4589 48.4449 63.5003 48.3704C63.5416 48.296 63.5665 48.2091 63.5747 48.1099C63.583 48.0023 63.5871 47.9113 63.5871 47.8369L63.5995 40.7143C63.5995 40.6399 63.5913 40.5324 63.5747 40.3917C63.5582 40.2428 63.5003 40.1642 63.401 40.156C63.3762 40.156 63.3514 40.156 63.3266 40.156C63.31 40.156 63.2893 40.156 63.2645 40.156C63.1818 40.156 63.0991 40.1601 63.0163 40.1684C62.9419 40.1766 62.8633 40.1808 62.7806 40.1808C62.6234 40.1808 62.5448 40.1022 62.5448 39.945C62.5448 39.8871 62.5614 39.8375 62.5945 39.7961C62.6358 39.7547 62.6855 39.7341 62.7434 39.7341C63.0991 39.7341 63.4506 39.7423 63.7981 39.7589C64.1538 39.7754 64.5095 39.7837 64.8652 39.7837C65.0803 39.7837 65.2954 39.7754 65.5105 39.7589C65.7338 39.7423 65.953 39.7341 66.1681 39.7341C66.2343 39.7341 66.2798 39.7589 66.3046 39.8085C66.3294 39.8582 66.3418 39.9119 66.3418 39.9698ZM75.2895 45.9632C75.2895 46.0955 75.2812 46.2279 75.2647 46.3602C75.2481 46.4926 75.2316 46.6291 75.215 46.7697C75.1819 47.0593 75.1447 47.3488 75.1034 47.6383C75.062 47.9279 75.0289 48.2174 75.0041 48.5069C75.0041 48.5896 74.9875 48.66 74.9545 48.7179C74.9131 48.7758 74.8511 48.8089 74.7683 48.8171C74.6856 48.8337 74.6112 48.842 74.545 48.842C74.4457 48.842 74.3464 48.8378 74.2472 48.8295C74.1479 48.8295 74.0445 48.8295 73.937 48.8295C73.4158 48.8213 72.8946 48.8171 72.3735 48.8171C71.8523 48.8171 71.3312 48.8171 70.81 48.8171H69.3954C69.2134 48.8171 69.0314 48.8171 68.8494 48.8171C68.6757 48.8171 68.4979 48.8213 68.3159 48.8295C68.2249 48.8378 68.1339 48.842 68.0429 48.842C67.9519 48.8502 67.8609 48.8544 67.7699 48.8544C67.6954 48.8544 67.6293 48.8337 67.5714 48.7923C67.5217 48.751 67.4969 48.6931 67.4969 48.6186C67.4969 48.5359 67.5217 48.4738 67.5714 48.4325C67.6293 48.3911 67.6913 48.3704 67.7575 48.3704C67.8237 48.3704 67.8898 48.3746 67.956 48.3828C68.0305 48.3911 68.1008 48.3952 68.167 48.3952C68.2993 48.3952 68.4027 48.3787 68.4772 48.3456C68.5516 48.3043 68.5889 48.2091 68.5889 48.0602C68.5889 46.778 68.5889 45.4958 68.5889 44.2136C68.5889 42.9231 68.5847 41.6408 68.5765 40.3669C68.5765 40.2676 68.5558 40.2056 68.5144 40.1808C68.4813 40.1477 68.4193 40.1311 68.3283 40.1311C68.2373 40.1311 68.1422 40.1353 68.0429 40.1435C67.9519 40.1518 67.8568 40.156 67.7575 40.156C67.6996 40.156 67.6458 40.1353 67.5962 40.0939C67.5465 40.0526 67.5217 39.9988 67.5217 39.9326C67.5217 39.7754 67.6044 39.6968 67.7699 39.6968C67.8609 39.6968 67.956 39.701 68.0553 39.7092C68.1546 39.7175 68.2538 39.7258 68.3531 39.7341C68.5516 39.7423 68.746 39.7506 68.9363 39.7589C69.1348 39.7589 69.3334 39.7589 69.5319 39.7589C69.6974 39.7589 69.8587 39.7589 70.0158 39.7589C70.1813 39.7589 70.3426 39.7547 70.4998 39.7465C70.6156 39.7382 70.7273 39.7299 70.8348 39.7217C70.9424 39.7051 71.0499 39.6968 71.1574 39.6968C71.2898 39.6968 71.356 39.7672 71.356 39.9078C71.356 39.9657 71.3394 40.0236 71.3063 40.0815C71.2732 40.1311 71.2236 40.156 71.1574 40.156C71.0499 40.156 70.9424 40.1518 70.8348 40.1435C70.7355 40.1353 70.628 40.1311 70.5122 40.1311C70.4212 40.1311 70.3633 40.156 70.3385 40.2056C70.3219 40.247 70.3137 40.309 70.3137 40.3917C70.3137 40.6978 70.3095 40.9997 70.3012 41.2975C70.3012 41.5954 70.3012 41.8973 70.3012 42.2034C70.3012 43.163 70.3012 44.1267 70.3012 45.0946C70.3095 46.0624 70.3137 47.0262 70.3137 47.9858C70.3137 48.0685 70.3343 48.1471 70.3757 48.2215C70.4171 48.296 70.4791 48.3456 70.5618 48.3704C70.6694 48.3952 70.781 48.4077 70.8969 48.4077C71.0127 48.4077 71.1243 48.4077 71.2319 48.4077C71.8523 48.4077 72.39 48.3456 72.845 48.2215C73.3 48.0974 73.6846 47.87 73.999 47.5391C74.3216 47.1999 74.5863 46.7118 74.7931 46.0748C74.818 46.0004 74.8511 45.9342 74.8924 45.8763C74.9338 45.8101 74.9958 45.777 75.0785 45.777C75.1282 45.777 75.1737 45.7936 75.215 45.8267C75.2647 45.8598 75.2895 45.9053 75.2895 45.9632ZM83.3541 44.1763C83.3541 43.7048 83.3003 43.2333 83.1928 42.7618C83.0935 42.2902 82.9281 41.8601 82.6964 41.4713C82.4648 41.0825 82.1587 40.7722 81.7782 40.5406C81.3977 40.3007 80.9303 40.1808 80.376 40.1808C79.8135 40.1808 79.2593 40.1932 78.7133 40.218V47.812C78.7133 48.0271 78.7464 48.1802 78.8126 48.2712C78.8787 48.3622 79.0276 48.4077 79.2593 48.4077C79.5405 48.4077 79.8342 48.3952 80.1403 48.3704C80.4546 48.3456 80.7566 48.2918 81.0461 48.2091C81.3439 48.1181 81.6045 47.9858 81.8278 47.812C82.3655 47.3736 82.7543 46.8276 82.9942 46.1741C83.2341 45.5206 83.3541 44.8547 83.3541 44.1763ZM85.1533 44.0026C85.1533 44.532 85.0747 45.0532 84.9176 45.5661C84.7604 46.079 84.5288 46.5546 84.2227 46.9931C83.9249 47.4232 83.5526 47.7872 83.1059 48.085C82.8164 48.2753 82.4772 48.4325 82.0884 48.5566C81.6996 48.6724 81.3025 48.7551 80.8972 48.8047C80.5001 48.8544 80.1279 48.8792 79.7804 48.8792C79.4909 48.8792 79.2014 48.8668 78.9118 48.842C78.6306 48.8254 78.3452 48.8171 78.0556 48.8171C77.8488 48.8171 77.6379 48.8171 77.4228 48.8171C77.216 48.8254 77.005 48.8378 76.79 48.8544C76.7072 48.8626 76.6286 48.8668 76.5542 48.8668C76.4797 48.875 76.4053 48.8792 76.3308 48.8792C76.1819 48.8792 76.1075 48.813 76.1075 48.6806C76.1075 48.5979 76.1447 48.5442 76.2192 48.5193C76.2936 48.4945 76.3763 48.478 76.4673 48.4697C76.5583 48.4532 76.6286 48.4366 76.6783 48.4201C76.8189 48.3539 76.9099 48.2505 76.9513 48.1099C76.9926 47.9692 77.0133 47.8327 77.0133 47.7004C77.0133 46.9476 77.0133 46.1989 77.0133 45.4544C77.0133 44.7099 77.0133 43.9654 77.0133 43.2209C77.0133 42.7907 77.0133 42.3647 77.0133 41.9428C77.0216 41.5126 77.0133 41.0866 76.9885 40.6647C76.9885 40.6482 76.9844 40.6151 76.9761 40.5654C76.9761 40.5075 76.9761 40.4744 76.9761 40.4662C76.9513 40.3669 76.8851 40.3007 76.7775 40.2676C76.67 40.2345 76.5542 40.2221 76.4301 40.2304C76.306 40.2304 76.2026 40.2304 76.1199 40.2304C76.0537 40.2304 75.9917 40.218 75.9338 40.1932C75.8759 40.1601 75.8469 40.1022 75.8469 40.0195C75.8469 39.8623 75.9255 39.7837 76.0827 39.7837C76.2895 39.7837 76.4921 39.792 76.6907 39.8085C76.8975 39.8168 77.1043 39.8209 77.3111 39.8209C77.8985 39.8209 78.4858 39.8002 79.0731 39.7589C79.6687 39.7092 80.2602 39.6844 80.8476 39.6844C81.741 39.6844 82.5103 39.8582 83.1556 40.2056C83.8008 40.553 84.293 41.0494 84.6322 41.6946C84.9796 42.3399 85.1533 43.1092 85.1533 44.0026Z" fill="white"/>
<defs>
<clipPath id="clip0_222_94">
<rect width="76.8035" height="54.1465" fill="white"/>
</clipPath>
</defs>
</svg>
