<svg width="110" height="43" viewBox="0 0 110 43" fill="none" xmlns="http://www.w3.org/2000/svg">
<g clip-path="url(#clip0_219_820)">
<path d="M25.4383 0.233887L0.481873 14.5924V19.7807L25.4383 5.42225L42.8736 15.4772V10.2889L25.4383 0.233887Z" fill="#3CE1EA"/>
<path d="M25.4384 7.02881L7.98297 17.0838V42.7641H10.8587V17.0838L26.8662 7.85332L25.4384 7.02881Z" fill="#0B132B"/>
<path fill-rule="evenodd" clip-rule="evenodd" d="M60.8118 42.7649H12.7692V18.2106L28.2739 9.26172L29.5609 10.0058L15.3231 18.2106V40.2109L21.0947 40.5327V25.2491C21.0947 22.5544 23.2867 20.3624 25.9814 20.3624C28.6761 20.3624 30.8681 22.5544 30.8681 25.2491V41.0957L60.8118 42.7649ZM23.0856 40.6332L28.8772 40.9751V25.229C28.8772 23.6403 27.5701 22.3533 25.9814 22.3533C24.3927 22.3533 23.0856 23.6403 23.0856 25.229V40.6332Z" fill="#0B132B"/>
</g>
<path d="M38.8461 28.2649C37.361 28.2649 36.2243 27.8662 35.4359 27.0686C34.6476 26.262 34.2534 25.1665 34.2534 23.7823C34.2534 22.3155 34.6338 21.1742 35.3947 20.3584C36.1647 19.5425 37.3106 19.1346 38.8323 19.1346C39.364 19.1346 39.8407 19.1758 40.2624 19.2583C40.6932 19.3317 41.0966 19.4371 41.4724 19.5746V21.1972C40.6932 20.8763 39.859 20.7159 38.9698 20.7159C37.9614 20.7159 37.2372 20.968 36.7972 21.4722C36.3572 21.9764 36.1372 22.7464 36.1372 23.7823C36.1372 25.7257 37.0906 26.6974 38.9973 26.6974C39.4282 26.6974 39.8544 26.6607 40.2761 26.5874C40.6978 26.5049 41.1011 26.3857 41.4862 26.2299V27.8662C41.1103 27.9854 40.707 28.0816 40.2761 28.1549C39.8544 28.2283 39.3777 28.2649 38.8461 28.2649ZM46.5337 28.2649C43.6644 28.2649 42.2298 26.757 42.2298 23.741C42.2298 22.1185 42.5919 20.9451 43.3161 20.2209C44.0402 19.4967 45.1128 19.1346 46.5337 19.1346C47.9546 19.1346 49.0271 19.4967 49.7513 20.2209C50.4755 20.9451 50.8376 22.1185 50.8376 23.741C50.8376 26.757 49.403 28.2649 46.5337 28.2649ZM46.5337 26.6836C47.3679 26.6836 47.9775 26.4453 48.3625 25.9686C48.7567 25.4828 48.9538 24.7402 48.9538 23.741C48.9538 22.6318 48.7567 21.8526 48.3625 21.4034C47.9775 20.9451 47.3679 20.7159 46.5337 20.7159C45.6995 20.7159 45.0853 20.9451 44.6911 21.4034C44.3061 21.8526 44.1136 22.6318 44.1136 23.741C44.1136 24.7402 44.3061 25.4828 44.6911 25.9686C45.0853 26.4453 45.6995 26.6836 46.5337 26.6836ZM51.1058 28.1274L54.4885 19.2721H56.5236L59.8924 28.1274H57.9674L57.1286 25.9961H53.8697L53.0447 28.1274H51.1058ZM54.1447 24.566H56.8536L55.4923 21.0047L54.1447 24.566ZM63.3159 28.2649C62.7475 28.2649 62.2159 28.2237 61.7208 28.1412C61.235 28.0587 60.8133 27.9395 60.4558 27.7837V26.1474C60.8591 26.3124 61.2946 26.4453 61.7621 26.5461C62.2296 26.647 62.688 26.6974 63.1371 26.6974C63.7788 26.6974 64.2509 26.6378 64.5535 26.5186C64.856 26.3995 65.0072 26.129 65.0072 25.7073C65.0072 25.4415 64.9431 25.2307 64.8147 25.0748C64.6864 24.919 64.4618 24.7815 64.1409 24.6623C63.8293 24.534 63.3847 24.3919 62.8071 24.236C61.8813 23.9794 61.2304 23.6585 60.8546 23.2735C60.4787 22.8885 60.2908 22.3568 60.2908 21.6784C60.2908 20.8626 60.5887 20.2346 61.1846 19.7946C61.7804 19.3546 62.6467 19.1346 63.7834 19.1346C64.3151 19.1346 64.8101 19.1713 65.2685 19.2446C65.7268 19.3179 66.0981 19.405 66.3823 19.5058V21.1422C65.6306 20.858 64.8468 20.7159 64.0309 20.7159C63.4534 20.7159 62.9996 20.7801 62.6696 20.9084C62.3396 21.0276 62.1746 21.2843 62.1746 21.6784C62.1746 21.9076 62.2342 22.091 62.3534 22.2285C62.4725 22.366 62.6742 22.4897 62.9584 22.5997C63.2517 22.7097 63.6597 22.8335 64.1822 22.971C64.9064 23.1635 65.4656 23.3927 65.8598 23.6585C66.2539 23.9244 66.5244 24.2269 66.671 24.566C66.8269 24.9052 66.9048 25.2857 66.9048 25.7073C66.9048 26.4774 66.6115 27.0962 66.0248 27.5637C65.4381 28.0312 64.5351 28.2649 63.3159 28.2649ZM69.9494 28.1274V20.7021H67.2268V19.2721H74.5145V20.7021H71.8057V28.1274H69.9494ZM75.5383 28.1274V19.2721H77.3946V26.6974H81.7536V28.1274H75.5383ZM82.7762 28.1274V19.2721H84.6325V28.1274H82.7762ZM86.2004 28.1274V19.2721H87.8092L92.0031 25.1711V19.2721H93.8594V28.1274H92.2506L88.0567 22.2285V28.1274H86.2004ZM95.4256 28.1274V19.2721H101.778V20.7159H97.2819V22.9847H101.27V24.4148H97.2819V26.6974H101.778V28.1274H95.4256ZM34.5284 40.1274V31.2721H39.0111C39.9003 31.2721 40.5603 31.4829 40.9911 31.9046C41.4312 32.3171 41.6512 32.9038 41.6512 33.6647C41.6512 34.1414 41.5595 34.5401 41.3762 34.861C41.1928 35.1727 40.9453 35.4156 40.6336 35.5898C41.0461 35.7181 41.3716 35.9335 41.6099 36.236C41.8574 36.5294 41.9812 36.9648 41.9812 37.5423C41.9812 38.3949 41.7383 39.0411 41.2524 39.4812C40.7757 39.912 40.0836 40.1274 39.1761 40.1274H34.5284ZM36.3847 34.9435H38.6673C39.1165 34.9435 39.4373 34.8472 39.6298 34.6547C39.8223 34.453 39.9186 34.1735 39.9186 33.8159C39.9186 33.4218 39.8178 33.1284 39.6161 32.9359C39.4236 32.7434 39.0615 32.6471 38.5298 32.6471H36.3847V34.9435ZM36.3847 38.7661H38.736C39.2036 38.7661 39.5473 38.6699 39.7673 38.4774C39.9873 38.2849 40.0974 37.9457 40.0974 37.4598C40.0974 37.0657 39.9873 36.7723 39.7673 36.5798C39.5565 36.3873 39.1715 36.291 38.6123 36.291H36.3847V38.7661ZM47.1616 40.2649C45.9424 40.2649 44.9753 39.9716 44.2602 39.3849C43.5544 38.7891 43.2014 37.9274 43.2014 36.7998V31.2721H45.0578V36.6623C45.0578 37.3407 45.2411 37.8494 45.6078 38.1886C45.9745 38.5186 46.4924 38.6836 47.1616 38.6836C47.8308 38.6836 48.3441 38.5186 48.7017 38.1886C49.0683 37.8494 49.2517 37.3407 49.2517 36.6623V31.2721H51.108V36.7998C51.108 37.9274 50.7551 38.7891 50.0492 39.3849C49.3433 39.9716 48.3808 40.2649 47.1616 40.2649ZM52.6028 40.1274V31.2721H54.4592V40.1274H52.6028ZM56.027 40.1274V31.2721H57.8834V38.6974H62.2423V40.1274H56.027ZM63.2649 40.1274V31.2721H66.9775C68.3067 31.2721 69.306 31.6159 69.9751 32.3034C70.6535 32.9817 70.9927 34.1276 70.9927 35.741C70.9927 37.2627 70.6581 38.3765 69.9889 39.0824C69.3289 39.7791 68.3251 40.1274 66.9775 40.1274H63.2649ZM65.1212 38.6974H66.7163C67.2388 38.6974 67.6788 38.6195 68.0363 38.4636C68.3938 38.2986 68.6597 38.0053 68.8338 37.5836C69.0172 37.1527 69.1089 36.5385 69.1089 35.741C69.1089 34.9435 69.0264 34.3339 68.8614 33.9122C68.6963 33.4905 68.4397 33.2017 68.0913 33.0459C67.743 32.8901 67.2846 32.8121 66.7163 32.8121H65.1212V38.6974Z" fill="#0B132B"/>
<defs>
<clipPath id="clip0_219_820">
<rect width="60.3298" height="42.5325" fill="white" transform="translate(0.481873 0.233887)"/>
</clipPath>
</defs>
</svg>
