<svg width="141" height="26" viewBox="0 0 141 26" fill="none" xmlns="http://www.w3.org/2000/svg">
<g clip-path="url(#clip0_31_169)">
<path d="M79.4102 18.9555H82.4048V7.66009H79.4102V18.9555ZM79.4102 5.89864H82.4048V3.2124H79.4102V5.89864Z" fill="#443939"/>
<path d="M84.3345 22.6548H87.3291V17.6787H87.3728C88.0111 18.6475 89.0464 19.286 90.6313 19.286C93.5379 19.286 95.5198 16.9741 95.5198 13.3191C95.5198 9.79608 93.6041 7.35205 90.6095 7.35205C89.0682 7.35205 88.0111 8.0787 87.2848 9.06949H87.2187V7.66031H84.3345V22.6548ZM89.993 16.7979C88.2096 16.7979 87.263 15.4548 87.263 13.4071C87.263 11.3814 88.0111 9.77412 89.8832 9.77412C91.7327 9.77412 92.4809 11.2713 92.4809 13.4071C92.4809 15.5429 91.5124 16.7979 89.993 16.7979Z" fill="#443939"/>
<path d="M101.493 19.286C104.312 19.286 106.249 17.9209 106.249 15.653C106.249 13.0108 104.157 12.4823 102.264 12.086C100.656 11.7558 99.1591 11.6676 99.1591 10.6989C99.1591 9.88419 99.9298 9.44383 101.097 9.44383C102.374 9.44383 103.145 9.88419 103.276 11.0952H105.984C105.765 8.82732 104.113 7.35205 101.141 7.35205C98.5645 7.35205 96.5389 8.51906 96.5389 10.9631C96.5389 13.4291 98.5208 13.9796 100.546 14.3759C102.088 14.6842 103.518 14.7943 103.518 15.8732C103.518 16.6658 102.77 17.1723 101.449 17.1723C100.106 17.1723 99.181 16.5998 98.9832 15.3007H96.2089C96.3848 17.7007 98.2125 19.286 101.493 19.286Z" fill="#443939"/>
<path d="M117.618 18.9558V7.6604H114.623V14.1778C114.623 15.6751 113.765 16.732 112.356 16.732C111.078 16.732 110.484 16.0054 110.484 14.6843V7.6604H107.512V15.1907C107.512 17.6567 108.921 19.2641 111.431 19.2641C113.017 19.2641 113.897 18.6696 114.668 17.6348H114.734V18.9558H117.618Z" fill="#443939"/>
<path d="M119.555 18.9557H122.549V12.3943C122.549 10.897 123.364 9.92824 124.576 9.92824C125.676 9.92824 126.315 10.5887 126.315 11.8658V18.9557H129.309V12.3943C129.309 10.897 130.08 9.92824 131.335 9.92824C132.436 9.92824 133.074 10.5887 133.074 11.8658V18.9557H136.069V11.3594C136.069 8.89334 134.726 7.35205 132.347 7.35205C130.917 7.35205 129.727 8.10067 128.957 9.33369H128.913C128.363 8.14472 127.218 7.35205 125.786 7.35205C124.223 7.35205 123.122 8.14472 122.506 9.17956H122.44V7.66031H119.555V18.9557Z" fill="#443939"/>
<path d="M1.36282 18.9555H4.35732V3.2124H1.36282V18.9555Z" fill="#443939"/>
<path d="M11.6793 19.286C15.1802 19.286 17.5802 16.6879 17.5802 13.3191C17.5802 9.95021 15.1802 7.35205 11.6793 7.35205C8.17834 7.35205 5.77835 9.95021 5.77835 13.3191C5.77835 16.6879 8.17834 19.286 11.6793 19.286ZM11.6793 16.9961C9.82976 16.9961 8.81688 15.5209 8.81688 13.3191C8.81688 11.1172 9.82976 9.61999 11.6793 9.61999C13.5068 9.61999 14.5417 11.1172 14.5417 13.3191C14.5417 15.5209 13.5068 16.9961 11.6793 16.9961Z" fill="#443939"/>
<path d="M23.9483 22.8089C25.6217 22.8089 27.0749 22.4126 28.0216 21.5319C28.8584 20.7612 29.3648 19.6823 29.3648 18.0971V7.66031H26.4804V8.84934H26.4364C25.7538 7.90255 24.7189 7.35205 23.3097 7.35205C20.4474 7.35205 18.4217 9.50985 18.4217 12.8786C18.4217 16.2915 20.8877 18.2731 23.3979 18.2731C24.829 18.2731 25.6878 17.7007 26.3483 16.9521H26.4143V18.1851C26.4143 19.7264 25.5996 20.5411 23.9042 20.5411C22.5171 20.5411 21.8785 19.9906 21.6364 19.286H18.6639C18.9721 21.4879 20.8657 22.8089 23.9483 22.8089ZM23.9042 15.8732C22.3629 15.8732 21.3501 14.7502 21.3501 12.8347C21.3501 10.9411 22.3629 9.75209 23.8822 9.75209C25.6878 9.75209 26.5685 11.1613 26.5685 12.8126C26.5685 14.486 25.7978 15.8732 23.9042 15.8732Z" fill="#443939"/>
<path d="M36.6434 19.286C40.1443 19.286 42.5443 16.6879 42.5443 13.3191C42.5443 9.95021 40.1443 7.35205 36.6434 7.35205C33.1425 7.35205 30.7425 9.95021 30.7425 13.3191C30.7425 16.6879 33.1425 19.286 36.6434 19.286ZM36.6434 16.9961C34.7939 16.9961 33.781 15.5209 33.781 13.3191C33.781 11.1172 34.7939 9.61999 36.6434 9.61999C38.4709 9.61999 39.5058 11.1172 39.5058 13.3191C39.5058 15.5209 38.4709 16.9961 36.6434 16.9961Z" fill="#443939"/>
<path d="M137.157 5.80561C137.157 5.29893 137.568 4.88818 138.075 4.88818H139.909C140.416 4.88818 140.827 5.29893 140.827 5.80561C140.827 6.3123 140.416 6.72305 139.909 6.72305H138.075C137.568 6.72305 137.157 6.3123 137.157 5.80561Z" fill="#443939"/>
<path fill-rule="evenodd" clip-rule="evenodd" d="M60.7045 -0.00439453C67.7979 -0.00439453 73.5488 5.74608 73.5488 12.8396C73.5488 19.9332 67.7979 25.6837 60.7045 25.6837C53.611 25.6837 47.8605 19.9332 47.8605 12.8396C47.8605 5.74608 53.611 -0.00439453 60.7045 -0.00439453ZM60.2403 0.956718C58.775 1.16293 57.3797 2.34034 56.2967 4.30953C55.9825 4.88073 55.699 5.51177 55.452 6.19314C56.9247 5.82305 58.5425 5.60487 60.2403 5.57112V0.956718ZM54.3665 6.50162C54.6737 5.53754 55.0494 4.65054 55.4831 3.86208C56.02 2.88589 56.6572 2.04291 57.3751 1.39546C53.4712 2.52924 50.3941 5.60639 49.2603 9.51027C49.9078 8.79236 50.7507 8.15517 51.7269 7.61828C52.5154 7.18461 53.4024 6.80879 54.3665 6.50162ZM54.058 7.58714C53.6879 9.05984 53.4698 10.6776 53.436 12.3754H48.8216C49.0278 10.9101 50.2052 9.51484 52.1744 8.43183C52.7456 8.11766 53.3766 7.83419 54.058 7.58714ZM54.3647 12.3754C54.403 10.5226 54.6698 8.78311 55.1111 7.24619C56.648 6.80487 58.3875 6.5381 60.2403 6.49976V8.50529C59.5491 10.2748 58.1393 11.6844 56.3697 12.3754H54.3647ZM53.436 13.3039H48.8216C49.0278 14.7692 50.2052 16.1644 52.1744 17.2475C52.7456 17.5616 53.3766 17.8451 54.058 18.0921C53.6879 16.6194 53.4698 15.0017 53.436 13.3039ZM55.1111 18.4331C54.6698 16.8962 54.403 15.1567 54.3647 13.3039H56.3697C58.1393 13.9948 59.5491 15.4045 60.2403 17.174V19.1795C58.3875 19.1412 56.648 18.8744 55.1111 18.4331ZM54.3665 19.1777C53.4024 18.8705 52.5154 18.4947 51.7269 18.061C50.7507 17.5241 49.9078 16.8869 49.2603 16.169C50.3941 20.0729 53.4712 23.1501 57.3751 24.2838C56.6572 23.6363 56.02 22.7934 55.4831 21.8172C55.0494 21.0287 54.6737 20.1417 54.3665 19.1777ZM60.2403 24.7226C58.775 24.5163 57.3797 23.3389 56.2967 21.3698C55.9825 20.7986 55.699 20.1675 55.452 19.4862C56.9247 19.8562 58.5425 20.0744 60.2403 20.1081V24.7226ZM64.0339 24.2838C64.7518 23.6363 65.389 22.7934 65.9258 21.8172C66.3593 21.0287 66.7356 20.1417 67.0426 19.1777C68.0066 18.8705 68.8934 18.4947 69.6821 18.061C70.6582 17.5241 71.5014 16.8869 72.1488 16.169C71.0146 20.0729 67.9379 23.1501 64.0339 24.2838ZM65.9573 19.4862C65.7101 20.1675 65.4262 20.7986 65.1122 21.3698C64.0293 23.3389 62.634 24.5163 61.1687 24.7226V20.1081C62.8665 20.0744 64.4843 19.8562 65.9573 19.4862ZM67.3509 18.0921C68.0323 17.8451 68.6635 17.5616 69.2345 17.2475C71.2041 16.1644 72.3812 14.7692 72.5874 13.3039H67.9732C67.9391 15.0017 67.7208 16.6194 67.3509 18.0921ZM67.0445 13.3039C67.006 15.1567 66.7395 16.8962 66.2977 18.4331C64.761 18.8744 63.0215 19.1412 61.1687 19.1795V17.1755C61.8597 15.4053 63.2698 13.995 65.0399 13.3039H67.0445ZM67.9732 12.3754H72.5874C72.3812 10.9101 71.2041 9.51484 69.2345 8.43183C68.6635 8.11766 68.0323 7.83419 67.3509 7.58714C67.7208 9.05984 67.9391 10.6776 67.9732 12.3754ZM66.2977 7.24619C66.7395 8.78311 67.006 10.5226 67.0445 12.3754H65.0399C63.2698 11.6843 61.8597 10.274 61.1687 8.50382V6.49976C63.0215 6.5381 64.761 6.80487 66.2977 7.24619ZM67.0426 6.50162C68.0066 6.80879 68.8934 7.18461 69.6821 7.61828C70.6582 8.15517 71.5014 8.79236 72.1488 9.51027C71.0146 5.60639 67.9379 2.52924 64.0339 1.39546C64.7518 2.04291 65.389 2.88589 65.9258 3.86208C66.3593 4.65054 66.7356 5.53754 67.0426 6.50162ZM61.1687 0.956718C62.634 1.16293 64.0293 2.34034 65.1122 4.30953C65.4262 4.88073 65.7101 5.51177 65.9573 6.19314C64.4843 5.82305 62.8665 5.60487 61.1687 5.57112V0.956718Z" fill="#443939"/>
</g>
<defs>
<clipPath id="clip0_31_169">
<rect width="140" height="25.6881" fill="white" transform="translate(0.833527 -0.00439453)"/>
</clipPath>
</defs>
</svg>
