<svg width="128" height="35" viewBox="0 0 128 35" fill="none" xmlns="http://www.w3.org/2000/svg">
<path d="M29.8657 12.7725C30.2132 12.7725 30.329 12.8979 30.329 13.2357V20.8797H34.2572C34.595 20.8797 34.7204 21.0052 34.7204 21.343V22.0186C34.7204 22.3564 34.595 22.4819 34.2572 22.4819H29.0839C28.7461 22.4819 28.611 22.3564 28.611 22.0186V13.2357C28.611 12.8979 28.7461 12.7725 29.0839 12.7725H29.8657Z" fill="#443939"/>
<path d="M38.1466 16.1406C38.1466 13.9111 39.5557 12.5696 42.0072 12.5696C44.4587 12.5696 45.8678 13.9111 45.8678 16.1406V19.1133C45.8678 21.3428 44.449 22.6844 42.0072 22.6844C39.5654 22.6844 38.1466 21.3428 38.1466 19.1133V16.1406ZM44.2464 16.1406C44.2464 14.8859 43.4646 14.2103 42.0555 14.2103C40.6464 14.2103 39.8742 14.8956 39.8742 16.1406V19.1326C39.8742 20.397 40.6464 21.0629 42.0555 21.0629C43.4646 21.0629 44.2464 20.368 44.2464 19.1326V16.1406Z" fill="#443939"/>
<path d="M57.3629 17.164C57.7393 17.164 57.8261 17.2894 57.8261 17.6272V19.461C57.8364 19.8929 57.7498 20.3218 57.5728 20.7158C57.3957 21.11 57.1328 21.4595 56.8031 21.7388C55.9843 22.3908 54.952 22.7142 53.9076 22.646C51.4079 22.646 50.047 21.3045 50.047 19.075V16.083C50.047 13.8825 51.4561 12.5312 53.9076 12.5312C55.8379 12.5312 57.0926 13.2937 57.6235 14.8187C57.6532 14.876 57.6691 14.9394 57.67 15.0039C57.6709 15.0684 57.6567 15.1323 57.6286 15.1903C57.6005 15.2484 57.5592 15.2992 57.508 15.3386C57.4569 15.3779 57.3972 15.4048 57.3339 15.4171L56.5811 15.6776C56.253 15.7935 56.1178 15.7259 56.002 15.3881C55.8421 14.9759 55.5494 14.6286 55.17 14.4014C54.7907 14.1742 54.3466 14.0798 53.9076 14.1334C52.4889 14.1334 51.7167 14.8187 51.7167 16.0637V19.1329C51.7167 20.3972 52.4985 21.0632 53.9076 21.0632C55.3168 21.0632 56.1854 20.4165 56.1854 19.4707V18.7565H54.091C53.7436 18.7565 53.6181 18.6214 53.6181 18.2836V17.6272C53.6181 17.2894 53.7436 17.164 54.091 17.164H57.3629Z" fill="#443939"/>
<path d="M61.8121 16.1406C61.8121 13.9111 63.2213 12.5696 65.6727 12.5696C68.1242 12.5696 69.5333 13.9111 69.5333 16.1406V19.1133C69.5333 21.3428 68.1146 22.6844 65.6727 22.6844C63.2309 22.6844 61.8121 21.3428 61.8121 19.1133V16.1406ZM67.9022 16.1406C67.9022 14.8859 67.1205 14.2103 65.721 14.2103C64.3215 14.2103 63.5301 14.8956 63.5301 16.1406V19.1326C63.5301 20.397 64.3119 21.0629 65.721 21.0629C67.1301 21.0629 67.9022 20.368 67.9022 19.1326V16.1406Z" fill="#443939"/>
<path d="M74.0793 13.0524C74.0793 12.84 74.1468 12.7725 74.3592 12.7725H74.8031C75.0155 12.7725 75.0637 12.84 75.0637 13.0524V22.202C75.0637 22.4143 75.0637 22.4819 74.8031 22.4819H74.3592C74.1468 22.4819 74.0793 22.4143 74.0793 22.202V13.0524Z" fill="#443939"/>
<path d="M83.8563 12.7725C84.6601 12.7725 85.4308 13.0917 85.9992 13.6601C86.5676 14.2284 86.8869 14.9993 86.8869 15.803C86.8869 16.6068 86.5676 17.3777 85.9992 17.946C85.4308 18.5143 84.6601 18.8336 83.8563 18.8336H80.9608V22.202C80.9608 22.4143 80.9126 22.4819 80.7099 22.4819H80.2563C80.0536 22.4819 79.9764 22.4143 79.9764 22.202V13.0524C79.9764 12.84 80.0536 12.7725 80.2563 12.7725H83.8563ZM83.7694 17.8781C84.0457 17.8781 84.3194 17.8237 84.5746 17.718C84.8298 17.6122 85.0619 17.4572 85.2572 17.2619C85.4525 17.0665 85.6076 16.8345 85.7133 16.5793C85.819 16.324 85.8735 16.0504 85.8735 15.7741C85.8735 15.4978 85.819 15.2241 85.7133 14.9689C85.6076 14.7137 85.4525 14.4816 85.2572 14.2863C85.0619 14.091 84.8298 13.936 84.5746 13.8302C84.3194 13.7245 84.0457 13.6701 83.7694 13.6701H80.874V17.8781H83.7694Z" fill="#443939"/>
<path d="M94.4246 12.5799C95.1698 12.4976 95.9216 12.6579 96.5684 13.037C97.2149 13.4161 97.7226 13.9936 98.015 14.6839C98.0922 14.8383 98.015 14.9638 97.8606 15.041L97.4359 15.234C97.2622 15.3016 97.1946 15.2919 97.0885 15.1086C96.8698 14.5963 96.4938 14.1668 96.0149 13.8822C95.5361 13.5977 94.9791 13.4728 94.4246 13.5257C92.7935 13.5257 91.9056 14.1724 91.9056 15.3305C91.8961 15.6845 92.0149 16.03 92.2403 16.3031C92.4656 16.5763 92.782 16.7588 93.1313 16.8169C93.6504 16.9862 94.1887 17.0899 94.7335 17.1257C95.393 17.1609 96.0436 17.2942 96.6638 17.5214C97.1396 17.6719 97.5488 17.9813 97.8229 18.3979C98.097 18.8145 98.2196 19.3127 98.1694 19.8088C98.1694 21.6137 96.8568 22.7043 94.4439 22.7043C93.6525 22.7948 92.854 22.6115 92.1813 22.1847C91.5087 21.758 91.0026 21.1135 90.7474 20.359C90.7303 20.3246 90.7212 20.2869 90.7204 20.2485C90.7196 20.2101 90.7274 20.172 90.7431 20.137C90.7587 20.102 90.782 20.0708 90.8111 20.0458C90.8402 20.0207 90.8744 20.0025 90.9115 19.9922L91.3362 19.8378C91.3696 19.8241 91.4055 19.8175 91.4416 19.8185C91.4777 19.8195 91.5133 19.828 91.546 19.8434C91.5786 19.8588 91.6078 19.8808 91.6314 19.9082C91.6551 19.9355 91.6729 19.9673 91.6836 20.0019C91.8995 20.5471 92.2835 21.0094 92.7797 21.3218C93.276 21.6341 93.859 21.7804 94.4439 21.7392C96.2681 21.7392 97.1657 21.1022 97.1657 19.8088C97.183 19.4689 97.0788 19.1339 96.8717 18.8635C96.6649 18.5931 96.3689 18.4048 96.0364 18.3322C95.5371 18.1832 95.0221 18.0925 94.5019 18.0619L93.4595 17.9268C93.1333 17.8576 92.8111 17.7705 92.4943 17.6662C92.1814 17.5717 91.8898 17.4177 91.6354 17.2126C91.3793 16.9808 91.1775 16.6955 91.044 16.3769C90.9106 16.0583 90.8489 15.7143 90.8632 15.3692C90.9308 13.6801 92.1951 12.5799 94.4246 12.5799Z" fill="#443939"/>
<path d="M103.372 19.1811C103.412 19.8636 103.712 20.5048 104.21 20.9735C104.708 21.4423 105.367 21.7033 106.05 21.7033C106.733 21.7033 107.392 21.4423 107.89 20.9735C108.388 20.5048 108.687 19.8636 108.728 19.1811V13.0524C108.728 12.84 108.796 12.7725 109.008 12.7725H109.452C109.664 12.7725 109.732 12.84 109.732 13.0524V19.1714C109.732 21.3623 108.439 22.6846 106.055 22.6846C103.671 22.6846 102.378 21.3623 102.378 19.1714V13.0524C102.378 12.84 102.445 12.7725 102.648 12.7725H103.101C103.304 12.7725 103.372 12.84 103.372 13.0524V19.1811Z" fill="#443939"/>
<path d="M123.051 12.7726C123.263 12.7726 123.331 12.8402 123.331 13.0525V22.2022C123.331 22.4145 123.263 22.4821 123.051 22.4821H122.646C122.443 22.4821 122.375 22.4145 122.375 22.2022V16.6332C122.375 15.823 122.431 15.0136 122.54 14.2107H122.482C122.181 14.9449 121.828 15.6576 121.43 16.3437L119.355 20.0016C119.329 20.0651 119.285 20.1194 119.228 20.1573C119.171 20.1951 119.105 20.2149 119.036 20.214H118.766C118.696 20.2143 118.629 20.1944 118.57 20.1567C118.512 20.119 118.466 20.0651 118.438 20.0016L116.334 16.3051C115.96 15.6288 115.638 14.9255 115.368 14.2011H115.311C115.409 15.0113 115.461 15.8267 115.465 16.6429V22.2022C115.465 22.4145 115.397 22.4821 115.185 22.4821H114.809C114.596 22.4821 114.529 22.4145 114.529 22.2022V13.0525C114.529 12.8402 114.596 12.7726 114.809 12.7726H115.156C115.235 12.7653 115.315 12.7826 115.384 12.8223C115.453 12.8621 115.508 12.9223 115.542 12.9946L118.92 18.9979L122.279 13.0525C122.385 12.8499 122.443 12.8209 122.655 12.8209L123.051 12.7726Z" fill="#443939"/>
<path d="M12.6957 21.015V27.9931C12.6957 28.2606 12.5894 28.5171 12.4002 28.7062C12.2112 28.8954 11.9546 29.0016 11.6871 29.0016C11.4196 29.0016 11.1631 28.8954 10.9739 28.7062C10.7848 28.5171 10.6785 28.2606 10.6785 27.9931V21.0247C10.9594 21.2298 11.296 21.3442 11.6437 21.3528C12.0226 21.3636 12.3939 21.2444 12.6957 21.015ZM21.2855 18.9978C21.0296 18.9978 20.784 19.0996 20.6031 19.2805C20.4221 19.4615 20.3204 19.707 20.3204 19.963V21.1791C20.3204 21.4466 20.4266 21.7032 20.6158 21.8922C20.8049 22.0814 21.0614 22.1877 21.3289 22.1877C21.5965 22.1877 21.853 22.0814 22.0421 21.8922C22.2313 21.7032 22.3375 21.4466 22.3375 21.1791V20.0113C22.3451 19.8729 22.3227 19.7345 22.2719 19.6055C22.2211 19.4766 22.1432 19.36 22.0434 19.2638C21.9436 19.1677 21.8242 19.0942 21.6935 19.0482C21.5627 19.0024 21.4235 18.9852 21.2855 18.9978ZM8.48761 23.6595C8.14032 23.6491 7.80412 23.5348 7.52246 23.3314V30.3287C7.52246 30.5975 7.62922 30.8553 7.81928 31.0453C8.00933 31.2354 8.26709 31.3421 8.53587 31.3421C8.80464 31.3421 9.0624 31.2354 9.25245 31.0453C9.44251 30.8553 9.54927 30.5975 9.54927 30.3287V23.3796C9.23411 23.5834 8.86224 23.6814 8.48761 23.6595ZM18.1391 16.9035C18.0083 16.8969 17.8777 16.9171 17.7549 16.9626C17.6322 17.0082 17.5201 17.0783 17.4252 17.1685C17.3304 17.2588 17.255 17.3674 17.2035 17.4878C17.1521 17.6081 17.1255 17.7377 17.1257 17.8686V23.2445C17.1257 23.5133 17.2325 23.7711 17.4225 23.9611C17.6126 24.1512 17.8703 24.2579 18.1391 24.2579C18.4079 24.2579 18.6657 24.1512 18.8557 23.9611C19.0458 23.7711 19.1525 23.5133 19.1525 23.2445V17.9362C19.1603 17.7969 19.1377 17.6576 19.0863 17.5279C19.035 17.3982 18.9562 17.2811 18.8553 17.1848C18.7543 17.0885 18.6338 17.0151 18.5018 16.97C18.3699 16.9247 18.2297 16.9086 18.0909 16.9228L18.1391 16.9035ZM14.9348 18.9689C14.5712 18.9664 14.2174 18.8518 13.9214 18.6407V25.6574C13.9214 25.9262 14.0282 26.184 14.2182 26.374C14.4083 26.5641 14.666 26.6708 14.9348 26.6708C15.2036 26.6708 15.4613 26.5641 15.6514 26.374C15.8415 26.184 15.9482 25.9262 15.9482 25.6574V18.6504C15.6421 18.8785 15.2683 18.9974 14.8866 18.9882L14.9348 18.9689ZM6.29672 24.3448V4.74256C6.29418 4.50362 6.19747 4.27534 6.0276 4.10728C5.85774 3.93922 5.62842 3.84496 5.38947 3.84497H5.17714C4.93819 3.84496 4.70888 3.93922 4.53901 4.10728C4.36914 4.27534 4.27244 4.50362 4.2699 4.74256V24.3448C4.2699 24.5854 4.36549 24.8162 4.53562 24.9863C4.70576 25.1565 4.93653 25.252 5.17714 25.252H5.38947C5.63009 25.252 5.86085 25.1565 6.03099 24.9863C6.20114 24.8162 6.29672 24.5854 6.29672 24.3448ZM8.59377 22.9164H8.38144C8.14083 22.9164 7.91006 22.8208 7.73993 22.6507C7.56979 22.4805 7.4742 22.2497 7.4742 22.0091V7.07823C7.47675 6.83929 7.57345 6.611 7.74331 6.44295C7.91318 6.27488 8.14249 6.18063 8.38144 6.18064H8.59377C8.83273 6.18063 9.06204 6.27488 9.2319 6.44295C9.40177 6.611 9.49848 6.83929 9.50102 7.07823V22.0284C9.50102 22.269 9.40543 22.4998 9.23529 22.67C9.06516 22.8401 8.83439 22.9357 8.59377 22.9357V22.9164ZM11.7884 20.6193H11.5664C11.3284 20.6193 11.1001 20.5247 10.9318 20.3564C10.7634 20.1881 10.6689 19.9598 10.6689 19.7217V9.39459C10.6676 9.27591 10.6899 9.15815 10.7344 9.04813C10.7789 8.93811 10.8448 8.83803 10.9283 8.75365C11.0118 8.66928 11.1112 8.6023 11.2207 8.55659C11.3303 8.51088 11.4477 8.48734 11.5664 8.48735H11.7884C12.0274 8.4899 12.2557 8.5866 12.4237 8.75646C12.5918 8.92633 12.686 9.15564 12.686 9.39459V19.7217C12.686 19.9598 12.5914 20.1881 12.4231 20.3564C12.2548 20.5247 12.0265 20.6193 11.7884 20.6193ZM14.9831 18.2547H14.7804C14.5414 18.2547 14.3121 18.1605 14.1422 17.9924C13.9724 17.8243 13.8757 17.5961 13.8732 17.3571V11.7978C13.8652 11.6739 13.8828 11.5497 13.9249 11.4328C13.9669 11.316 14.0325 11.209 14.1175 11.1185C14.2026 11.028 14.3053 10.956 14.4193 10.9068C14.5333 10.8577 14.6562 10.8324 14.7804 10.8327H14.9927C15.2333 10.8327 15.4641 10.9282 15.6343 11.0984C15.8044 11.2685 15.9 11.4993 15.9 11.7399V17.3378C15.9012 17.4578 15.8787 17.5768 15.8337 17.6879C15.7887 17.7991 15.7221 17.9003 15.6376 17.9856C15.5533 18.0708 15.4529 18.1385 15.3421 18.1847C15.2314 18.2309 15.1127 18.2547 14.9927 18.2547H14.9831ZM18.1874 16.1796H17.975C17.7344 16.1796 17.5037 16.0841 17.3335 15.9139C17.1634 15.7437 17.0678 15.513 17.0678 15.2724V13.8343C17.0703 13.5953 17.167 13.3671 17.3369 13.199C17.5068 13.0309 17.7361 12.9367 17.975 12.9367H18.1874C18.4263 12.9367 18.6557 13.0309 18.8255 13.199C18.9954 13.3671 19.0921 13.5953 19.0946 13.8343V15.2724C19.0946 15.5113 19.0004 15.7407 18.8323 15.9105C18.6643 16.0804 18.436 16.1771 18.197 16.1796H18.1874Z" fill="#443939"/>
</svg>
