<svg width="141" height="27" viewBox="0 0 141 27" fill="none" xmlns="http://www.w3.org/2000/svg">
<g clip-path="url(#clip0_31_168)">
<path d="M56.2328 5.88501H53.3001V19.1181H61.4188V16.5251H56.2328V5.88501Z" fill="#443939"/>
<path d="M61.6989 14.6292C61.6989 17.4547 63.5944 19.3323 66.4556 19.3323C69.2989 19.3323 71.1945 17.4547 71.1945 14.6292C71.1945 11.8038 69.2989 9.9082 66.4556 9.9082C63.5944 9.9082 61.6989 11.8038 61.6989 14.6292ZM64.4706 14.6113C64.4706 13.2702 65.2575 12.3761 66.4556 12.3761C67.6358 12.3761 68.4227 13.2702 68.4227 14.6113C68.4227 15.9704 67.6358 16.8646 66.4556 16.8646C65.2575 16.8646 64.4706 15.9704 64.4706 14.6113Z" fill="#443939"/>
<path d="M71.6375 14.4865C71.6375 17.1867 73.39 19.0107 75.8757 19.0107C77.0738 19.0107 78.111 18.5815 78.6296 17.8842V19.118C78.6296 20.3519 77.8606 21.1745 76.5016 21.1745C75.2855 21.1745 74.445 20.6023 74.3914 19.583H71.6017C71.8521 22.0329 73.7477 23.678 76.3406 23.678C79.3985 23.678 81.3298 21.6931 81.3298 18.5458V10.1768H78.8442L78.7011 11.0888C78.2004 10.3556 77.1453 9.8728 75.9294 9.8728C73.4257 9.8728 71.6375 11.7504 71.6375 14.4865ZM74.4272 14.4149C74.4272 13.1274 75.2855 12.269 76.3764 12.269C77.646 12.269 78.5759 13.1095 78.5759 14.4149C78.5759 15.7204 77.6639 16.6145 76.3942 16.6145C75.3035 16.6145 74.4272 15.7204 74.4272 14.4149Z" fill="#443939"/>
<path d="M82.1324 14.6292C82.1324 17.4547 84.0281 19.3323 86.8895 19.3323C89.7329 19.3323 91.6282 17.4547 91.6282 14.6292C91.6282 11.8038 89.7329 9.9082 86.8895 9.9082C84.0281 9.9082 82.1324 11.8038 82.1324 14.6292ZM84.9041 14.6113C84.9041 13.2702 85.6909 12.3761 86.8895 12.3761C88.0693 12.3761 88.8561 13.2702 88.8561 14.6113C88.8561 15.9704 88.0693 16.8646 86.8895 16.8646C85.6909 16.8646 84.9041 15.9704 84.9041 14.6113Z" fill="#443939"/>
<path d="M94.0025 8.78203C94.8605 8.78203 95.558 8.08461 95.558 7.20836C95.558 6.33212 94.8605 5.65259 94.0025 5.65259C93.1264 5.65259 92.4289 6.33212 92.4289 7.20836C92.4289 8.08461 93.1264 8.78203 94.0025 8.78203ZM92.6074 19.1181H95.3795V10.1769H92.6074V19.1181Z" fill="#443939"/>
<path d="M96.9932 23.4098H99.7114V18.2239C100.23 18.9034 101.41 19.3684 102.644 19.3684C105.308 19.3684 106.918 17.3298 106.846 14.5043C106.774 11.6252 105.112 9.89062 102.626 9.89062C101.356 9.89062 100.158 10.445 99.6573 11.2676L99.514 10.1768H96.9932V23.4098ZM99.7646 14.6473C99.7646 13.3062 100.659 12.4121 101.946 12.4121C103.251 12.4121 104.074 13.3241 104.074 14.6473C104.074 15.9707 103.251 16.8827 101.946 16.8827C100.659 16.8827 99.7646 15.9886 99.7646 14.6473Z" fill="#443939"/>
<path d="M107.14 16.2926C107.211 18.0987 108.642 19.3504 110.895 19.3504C113.059 19.3504 114.561 18.206 114.561 16.3641C114.561 15.0408 113.774 14.1646 112.307 13.8069L110.717 13.4135C110.144 13.2704 109.786 13.1273 109.786 12.6624C109.786 12.1974 110.161 11.8934 110.717 11.8934C111.342 11.8934 111.753 12.3048 111.736 12.9127H114.221C114.149 11.053 112.737 9.89062 110.77 9.89062C108.785 9.89062 107.301 11.0709 107.301 12.8591C107.301 14.0572 107.962 15.0408 109.732 15.5058L111.306 15.917C111.771 16.0422 111.967 16.2568 111.967 16.5608C111.967 17.0079 111.556 17.294 110.859 17.294C110.054 17.294 109.625 16.9185 109.625 16.2926H107.14Z" fill="#443939"/>
<path d="M118.776 19.3504C119.867 19.3504 120.958 18.8497 121.512 18.1166L121.691 19.118H124.284V10.1768H121.53V14.8262C121.53 16.1674 121.137 16.9005 119.867 16.9005C118.883 16.9005 118.24 16.4535 118.24 14.7905V10.1768H115.486V15.7918C115.486 17.9199 116.666 19.3504 118.776 19.3504Z" fill="#443939"/>
<path d="M128.651 19.118V14.2361C128.651 12.734 129.456 12.3048 130.243 12.3048C131.119 12.3048 131.691 12.8413 131.691 13.95V19.118H134.409V14.2361C134.409 12.7161 135.196 12.2869 135.983 12.2869C136.859 12.2869 137.449 12.8234 137.449 13.95V19.118H140.132V13.2705C140.132 11.2319 139.059 9.8728 136.752 9.8728C135.465 9.8728 134.409 10.4986 133.944 11.4643C133.408 10.4986 132.478 9.8728 130.994 9.8728C130.01 9.8728 129.098 10.3198 128.562 11.0351L128.455 10.1768H125.879V19.118H128.651Z" fill="#443939"/>
<path d="M0.902466 13.8396C0.902466 6.60504 6.76727 0.740234 14.0019 0.740234H31.1949C38.4295 0.740234 44.2943 6.60504 44.2943 13.8396V26.9391H14.0019C6.76727 26.9391 0.902466 21.0743 0.902466 13.8396Z" fill="#443939"/>
<path d="M31.1949 5.65259H14.0019C9.48025 5.65259 5.81474 9.31809 5.81474 13.8397C5.81474 18.3614 9.48025 22.0269 14.0019 22.0269H31.1949C35.7165 22.0269 39.382 18.3614 39.382 13.8397C39.382 9.31809 35.7165 5.65259 31.1949 5.65259Z" fill="#F9F9F9"/>
<path d="M14.0019 17.9332C16.2627 17.9332 18.0954 16.1005 18.0954 13.8397C18.0954 11.5788 16.2627 9.74609 14.0019 9.74609C11.7411 9.74609 9.90831 11.5788 9.90831 13.8397C9.90831 16.1005 11.7411 17.9332 14.0019 17.9332Z" fill="#443939"/>
<path d="M12.3645 13.0212C12.8167 13.0212 13.1832 12.6547 13.1832 12.2025C13.1832 11.7503 12.8167 11.3838 12.3645 11.3838C11.9123 11.3838 11.5458 11.7503 11.5458 12.2025C11.5458 12.6547 11.9123 13.0212 12.3645 13.0212Z" fill="#443939"/>
<path d="M32.0136 17.9332C34.2744 17.9332 36.1071 16.1005 36.1071 13.8397C36.1071 11.5788 34.2744 9.74609 32.0136 9.74609C29.7528 9.74609 27.92 11.5788 27.92 13.8397C27.92 16.1005 29.7528 17.9332 32.0136 17.9332Z" fill="#443939"/>
<path d="M30.3762 13.0212C30.8284 13.0212 31.1949 12.6547 31.1949 12.2025C31.1949 11.7503 30.8284 11.3838 30.3762 11.3838C29.924 11.3838 29.5575 11.7503 29.5575 12.2025C29.5575 12.6547 29.924 13.0212 30.3762 13.0212Z" fill="#443939"/>
</g>
<defs>
<clipPath id="clip0_31_168">
<rect width="140" height="26.1988" fill="white" transform="translate(0.902466 0.740234)"/>
</clipPath>
</defs>
</svg>
