<svg width="141" height="34" viewBox="0 0 141 34" fill="none" xmlns="http://www.w3.org/2000/svg">
<g clip-path="url(#clip0_31_166)">
<path d="M39.9537 24.1657H49.1943V21.5344H42.7715V9.24805H39.9537V24.1657Z" fill="#443939"/>
<path d="M54.7472 24.4758C55.8661 24.4758 56.8502 24.2271 57.6996 23.7299C58.556 23.2257 59.2225 22.5316 59.699 21.6477C60.1824 20.7567 60.4242 19.7311 60.4242 18.5709C60.4242 17.4176 60.1859 16.3989 59.7094 15.5149C59.2328 14.624 58.5663 13.9264 57.71 13.4223C56.8605 12.9181 55.873 12.666 54.7472 12.666C53.6422 12.666 52.6649 12.9147 51.8155 13.4119C50.966 13.9092 50.2996 14.6032 49.8161 15.4942C49.3327 16.3781 49.0909 17.4037 49.0909 18.5709C49.0909 19.7242 49.3258 20.7464 49.7954 21.6373C50.2719 22.5213 50.935 23.2154 51.7844 23.7195C52.6339 24.2237 53.6215 24.4758 54.7472 24.4758ZM54.7472 21.8445C53.8701 21.8445 53.2037 21.551 52.7479 20.964C52.2989 20.37 52.0745 19.5723 52.0745 18.5709C52.0745 17.5971 52.2886 16.8098 52.7168 16.2089C53.1518 15.6012 53.8286 15.2973 54.7472 15.2973C55.6381 15.2973 56.308 15.5943 56.7569 16.1882C57.2127 16.7822 57.4406 17.5764 57.4406 18.5709C57.4406 19.5309 57.2162 20.3182 56.7673 20.9329C56.3253 21.5406 55.6519 21.8445 54.7472 21.8445Z" fill="#443939"/>
<path d="M65.9967 24.4758C66.5216 24.4758 67.005 24.4136 67.4471 24.2893C67.896 24.165 68.3034 23.9889 68.6695 23.761V24.8902C68.6833 25.3046 68.5762 25.6498 68.3483 25.9261C68.1273 26.2093 67.8304 26.4199 67.4574 26.558C67.0845 26.7031 66.6873 26.7756 66.2661 26.7756C65.8724 26.7756 65.5064 26.6893 65.168 26.5166C64.8365 26.344 64.5809 26.0919 64.4013 25.7604L61.7908 27.0242C62.219 27.7493 62.8302 28.333 63.6244 28.7749C64.4187 29.2238 65.2923 29.4483 66.2454 29.4483C67.0672 29.4483 67.8304 29.3378 68.5348 29.1168C69.2392 28.9027 69.8332 28.5747 70.3166 28.1326C70.8069 27.6907 71.1419 27.1278 71.3215 26.4441C71.3836 26.2023 71.425 25.9572 71.4458 25.7085C71.4734 25.4669 71.4872 25.2079 71.4872 24.9316V12.9768H69.0217V13.5984C68.6418 13.3014 68.2102 13.0735 67.7267 12.9147C67.2502 12.7489 66.7219 12.666 66.1417 12.666C65.0713 12.666 64.1389 12.9216 63.3447 13.4326C62.5505 13.9437 61.9324 14.6447 61.4904 15.5356C61.0553 16.4196 60.8378 17.4314 60.8378 18.5709C60.8378 19.6897 61.0518 20.6946 61.4801 21.5855C61.9151 22.4764 62.5194 23.1809 63.2929 23.6989C64.0664 24.2168 64.9677 24.4758 65.9967 24.4758ZM66.4525 21.9688C65.8448 21.9688 65.3476 21.8168 64.9608 21.513C64.5741 21.2091 64.2874 20.8017 64.101 20.2906C63.9145 19.7726 63.8212 19.1994 63.8212 18.5709C63.8212 17.9493 63.9179 17.3831 64.1113 16.872C64.3047 16.354 64.6016 15.9431 65.0022 15.6392C65.4097 15.3284 65.9277 15.173 66.5561 15.173C67.4402 15.173 68.072 15.4873 68.4519 16.1157C68.8318 16.7373 69.0217 17.5557 69.0217 18.5709C69.0217 19.5861 68.8283 20.408 68.4416 21.0364C68.0617 21.658 67.3987 21.9688 66.4525 21.9688Z" fill="#443939"/>
<path d="M78.1798 24.4758C79.2987 24.4758 80.2828 24.2271 81.1323 23.7299C81.9884 23.2257 82.6551 22.5316 83.1312 21.6477C83.6147 20.7567 83.8565 19.7311 83.8565 18.5709C83.8565 17.4176 83.6188 16.3989 83.1418 15.5149C82.6657 14.624 81.999 13.9264 81.1426 13.4223C80.2932 12.9181 79.3055 12.666 78.1798 12.666C77.0748 12.666 76.0975 12.9147 75.2481 13.4119C74.3987 13.9092 73.7322 14.6032 73.2487 15.4942C72.7653 16.3781 72.5236 17.4037 72.5236 18.5709C72.5236 19.7242 72.7584 20.7464 73.228 21.6373C73.7045 22.5213 74.3676 23.2154 75.217 23.7195C76.0665 24.2237 77.0541 24.4758 78.1798 24.4758ZM78.1798 21.8445C77.3027 21.8445 76.6362 21.551 76.1804 20.964C75.7315 20.37 75.5071 19.5723 75.5071 18.5709C75.5071 17.5971 75.7212 16.8098 76.1494 16.2089C76.5845 15.6012 77.2613 15.2973 78.1798 15.2973C79.0708 15.2973 79.7406 15.5943 80.1895 16.1882C80.6453 16.7822 80.8733 17.5764 80.8733 18.5709C80.8733 19.5309 80.6488 20.3182 80.1999 20.9329C79.7579 21.5406 79.0845 21.8445 78.1798 21.8445Z" fill="#443939"/>
<path d="M85.0985 11.4227H87.9164V8.93652H85.0985V11.4227ZM85.0985 24.1649H87.9164V12.9767H85.0985V24.1649Z" fill="#443939"/>
<path d="M89.7584 29.1375H92.5967V23.7609C92.963 23.9889 93.3667 24.165 93.8087 24.2893C94.258 24.4136 94.7447 24.4758 95.2697 24.4758C96.2985 24.4758 97.2004 24.2168 97.9737 23.6988C98.7469 23.1808 99.3476 22.4764 99.7758 21.5855C100.211 20.6945 100.429 19.6897 100.429 18.5709C100.429 17.4314 100.208 16.4196 99.766 15.5356C99.3305 14.6447 98.716 13.9437 97.9216 13.4326C97.1271 12.9216 96.1952 12.666 95.1248 12.666C94.5445 12.666 94.013 12.7489 93.5295 12.9147C93.0525 13.0735 92.6244 13.3014 92.2451 13.5984V12.9768H89.7584V29.1375ZM94.8139 21.9688C93.8746 21.9688 93.212 21.658 92.8246 21.0364C92.438 20.4079 92.2451 19.5861 92.2451 18.5709C92.2451 17.5557 92.4347 16.7373 92.8148 16.1157C93.2015 15.4873 93.8331 15.173 94.7105 15.173C95.3389 15.173 95.8533 15.3284 96.2538 15.6391C96.6616 15.9431 96.9619 16.354 97.1548 16.872C97.3485 17.383 97.4454 17.9493 97.4454 18.5709C97.4454 19.1994 97.3518 19.7726 97.1654 20.2906C96.979 20.8017 96.6925 21.2091 96.3059 21.513C95.9192 21.8168 95.4219 21.9688 94.8139 21.9688Z" fill="#443939"/>
<path d="M105.534 24.4758C106.997 24.4758 108.144 24.1477 108.972 23.4916C109.801 22.8355 110.215 21.9343 110.215 20.7878C110.215 19.9176 109.946 19.2305 109.408 18.7263C108.876 18.2222 107.971 17.8043 106.693 17.4728C105.823 17.2518 105.174 17.0722 104.746 16.9341C104.325 16.796 104.045 16.6613 103.906 16.5301C103.775 16.3989 103.71 16.2366 103.71 16.0432C103.71 15.7186 103.865 15.47 104.176 15.2973C104.494 15.1246 104.912 15.0556 105.429 15.0901C106.527 15.173 107.129 15.6426 107.232 16.499L110.112 15.981C109.967 14.9658 109.47 14.1613 108.62 13.5673C107.771 12.9664 106.687 12.666 105.367 12.666C104.014 12.666 102.933 12.9837 102.125 13.6191C101.317 14.2544 100.913 15.1108 100.913 16.1882C100.913 17.0446 101.193 17.7214 101.752 18.2187C102.311 18.7091 103.275 19.1303 104.642 19.4826C105.45 19.6966 106.044 19.8693 106.424 20.0005C106.811 20.1317 107.06 20.2664 107.17 20.4045C107.28 20.5357 107.336 20.7119 107.336 20.9329C107.336 21.2851 107.197 21.5613 106.921 21.7616C106.645 21.955 106.251 22.0516 105.74 22.0516C105.118 22.0516 104.604 21.9032 104.197 21.6062C103.797 21.3092 103.537 20.8984 103.42 20.3734L100.54 20.8085C100.726 21.9757 101.251 22.8804 102.115 23.5227C102.985 24.1581 104.125 24.4758 105.534 24.4758Z" fill="#443939"/>
<path d="M115.413 24.4963C116.222 24.4963 116.926 24.3616 117.527 24.0923C118.128 23.8229 118.632 23.4638 119.04 23.0149V24.1648H121.525V12.9766H118.687V18.6536C118.687 19.3442 118.607 19.9036 118.449 20.3318C118.297 20.7531 118.1 21.0742 117.858 21.2952C117.617 21.5093 117.358 21.6543 117.081 21.7303C116.805 21.8063 116.546 21.8443 116.305 21.8443C115.704 21.8443 115.238 21.7096 114.906 21.4402C114.582 21.1709 114.346 20.8359 114.201 20.4354C114.057 20.0348 113.97 19.6377 113.943 19.244C113.915 18.8435 113.901 18.5154 113.901 18.2599V12.9766H111.042V19.2544C111.042 19.4408 111.055 19.7378 111.083 20.1453C111.111 20.5528 111.191 21.0052 111.322 21.5024C111.453 21.9927 111.67 22.4658 111.974 22.9216C112.285 23.3774 112.717 23.7538 113.269 24.0508C113.821 24.3478 114.537 24.4963 115.413 24.4963Z" fill="#443939"/>
<path d="M123.157 24.1656H125.996V17.3904C125.996 16.7482 126.171 16.2268 126.524 15.8262C126.883 15.4187 127.356 15.215 127.943 15.215C128.558 15.215 129.038 15.4222 129.383 15.8366C129.735 16.2441 129.912 16.8173 129.912 17.5562V24.1656H132.729V17.3904C132.729 16.7482 132.905 16.2268 133.258 15.8262C133.617 15.4187 134.09 15.215 134.676 15.215C135.292 15.215 135.771 15.4222 136.116 15.8366C136.469 16.2441 136.645 16.8173 136.645 17.5562V24.1656H139.462V16.8103C139.462 15.5879 139.134 14.6004 138.478 13.8475C137.83 13.0879 136.866 12.708 135.588 12.708C134.87 12.708 134.211 12.8634 133.609 13.1742C133.009 13.485 132.529 13.9097 132.169 14.4484C131.88 13.9236 131.465 13.5023 130.927 13.1846C130.388 12.8669 129.718 12.708 128.917 12.708C128.24 12.708 127.619 12.8427 127.052 13.1121C126.486 13.3745 126.016 13.7371 125.643 14.1997V12.9773H123.157V24.1656Z" fill="#443939"/>
<path d="M16.3195 0.560547C7.32878 0.560547 0.0404053 7.84895 0.0404053 16.8396C9.03108 16.8396 16.3195 9.55125 16.3195 0.560547Z" fill="#443939"/>
<path d="M16.3195 33.1187C25.3101 33.1187 32.5985 25.8303 32.5985 16.8396C23.6078 16.8396 16.3195 24.128 16.3195 33.1187Z" fill="#443939"/>
<path d="M16.3195 0.560547C25.3101 0.560547 32.5985 7.84895 32.5985 16.8396C23.6078 16.8396 16.3195 9.55125 16.3195 0.560547Z" fill="#443939"/>
<path d="M16.3195 33.1187C7.32878 33.1187 0.0404045 25.8303 0.0404053 16.8396C9.03108 16.8396 16.3195 24.128 16.3195 33.1187Z" fill="#443939"/>
</g>
<defs>
<clipPath id="clip0_31_166">
<rect width="140" height="32.5582" fill="white" transform="translate(0.0404053 0.560547)"/>
</clipPath>
</defs>
</svg>
