<svg width="100" height="20" viewBox="0 0 66 26" fill="none" xmlns="http://www.w3.org/2000/svg">
<g clip-path="url(#clip0_31_148)">
<path d="M15.9004 0.3396C13.3619 0.3396 10.9275 1.34797 9.1326 3.1429L3.27474 9.00077C1.47981 10.7957 0.471436 13.2301 0.471436 15.7685C0.471436 21.0545 4.75655 25.3396 10.0425 25.3396C12.5809 25.3396 15.0154 24.3312 16.8103 22.5363L20.8622 18.4844C20.8622 18.4843 20.8623 18.4844 20.8622 18.4844L32.6681 6.67843C33.5253 5.82119 34.688 5.3396 35.9003 5.3396C37.93 5.3396 39.6508 6.66244 40.2473 8.49299L43.9733 4.76707C42.2735 2.10488 39.2931 0.3396 35.9003 0.3396C33.3619 0.3396 30.9275 1.34797 29.1326 3.1429L13.2748 19.0008C12.4175 19.858 11.2549 20.3396 10.0425 20.3396C7.51797 20.3396 5.47144 18.2931 5.47144 15.7685C5.47144 14.5562 5.95303 13.3935 6.81027 12.5363L12.6681 6.67843C13.5254 5.82119 14.688 5.3396 15.9004 5.3396C17.9301 5.3396 19.6508 6.6625 20.2474 8.49311L23.9733 4.76716C22.2736 2.10493 19.2932 0.3396 15.9004 0.3396Z" fill="#443939"/>
<path d="M33.2748 19.0008C32.4175 19.858 31.2548 20.3396 30.0425 20.3396C28.0131 20.3396 26.2925 19.0171 25.6958 17.1868L21.9699 20.9127C23.6698 23.5745 26.65 25.3396 30.0425 25.3396C32.5809 25.3396 35.0154 24.3312 36.8103 22.5363L52.6681 6.67843C53.5254 5.82119 54.688 5.3396 55.9003 5.3396C58.4249 5.3396 60.4714 7.38613 60.4714 9.91068C60.4714 11.123 59.9898 12.2857 59.1326 13.1429L53.2748 19.0008C52.4175 19.858 51.2548 20.3396 50.0425 20.3396C48.0129 20.3396 46.2923 19.0168 45.6956 17.1864L41.9698 20.9123C43.6695 23.5744 46.6498 25.3396 50.0425 25.3396C52.5809 25.3396 55.0153 24.3312 56.8103 22.5363L62.6681 16.6784C64.463 14.8835 65.4714 12.4491 65.4714 9.91068C65.4714 4.62472 61.1864 0.3396 55.9003 0.3396C53.3619 0.3396 50.9275 1.34797 49.1326 3.1429L33.2748 19.0008Z" fill="#443939"/>
</g>
<defs>
<clipPath id="clip0_31_148">
<rect width="65" height="25" fill="white" transform="translate(0.471436 0.3396)"/>
</clipPath>
</defs>
</svg>
