<svg width="130" height="34" viewBox="0 0 130 34" fill="none" xmlns="http://www.w3.org/2000/svg">
<path d="M15.4247 6.85043V2.74854H2.49164V30.931H15.4247V26.8291C12.7753 26.8291 10.2345 25.7766 8.36115 23.9032C6.48779 22.0299 5.43535 19.4891 5.43535 16.8398C5.43535 14.1904 6.48779 11.6496 8.36115 9.77624C10.2345 7.90288 12.7753 6.85043 15.4247 6.85043Z" fill="#443939"/>
<path d="M15.4247 6.8501V26.8287C18.074 26.8287 20.6149 25.7762 22.4882 23.9029C24.3616 22.0295 25.414 19.4888 25.414 16.8394C25.414 14.1901 24.3616 11.6492 22.4882 9.77591C20.6149 7.90255 18.074 6.8501 15.4247 6.8501Z" fill="#443939"/>
<path d="M32.6719 9.35986H35.5673V23.3063H32.6719V9.35986Z" fill="#443939"/>
<path d="M37.1888 18.5284C37.1888 17.525 37.4868 16.5442 38.0448 15.7103C38.6029 14.8764 39.3959 14.227 40.3235 13.8443C41.2511 13.4617 42.2714 13.3631 43.2551 13.5609C44.2388 13.7588 45.1416 14.2442 45.849 14.9558C46.5565 15.6674 47.0368 16.5729 47.2291 17.5577C47.4212 18.5426 47.3168 19.5622 46.9288 20.4876C46.5408 21.4129 45.8869 22.2023 45.0499 22.7555C44.2128 23.3089 43.2303 23.6011 42.2269 23.5954C41.5614 23.6006 40.9016 23.4729 40.2861 23.2197C39.6706 22.9665 39.1118 22.593 38.6425 22.1211C38.1733 21.6492 37.803 21.0882 37.5533 20.4713C37.3038 19.8544 37.1798 19.1938 37.1888 18.5284ZM44.4467 18.5284C44.4354 18.0958 44.2967 17.6761 44.048 17.322C43.7994 16.9678 43.452 16.6948 43.0489 16.5371C42.646 16.3794 42.2055 16.3439 41.7825 16.4353C41.3595 16.5266 40.9729 16.7406 40.6709 17.0506C40.3689 17.3605 40.165 17.7526 40.0847 18.1778C40.0043 18.6031 40.0512 19.0425 40.2193 19.4412C40.3874 19.8399 40.6693 20.1803 41.0299 20.4196C41.3904 20.6589 41.8134 20.7866 42.2462 20.7868C42.5409 20.7926 42.8335 20.7375 43.1059 20.625C43.3782 20.5125 43.6244 20.3451 43.8291 20.1331C44.0339 19.9212 44.1926 19.6692 44.2956 19.3931C44.3986 19.117 44.4435 18.8226 44.4274 18.5284H44.4467Z" fill="#443939"/>
<path d="M58.7214 13.7508V22.8329C58.7214 26.0372 56.212 27.398 53.6736 27.398C52.7782 27.4715 51.8802 27.2936 51.0805 26.8844C50.2808 26.4752 49.6112 25.8508 49.147 25.0817L51.5889 23.6726C51.7867 24.0715 52.1015 24.4007 52.4912 24.6162C52.8809 24.8317 53.327 24.9234 53.7701 24.879C54.0524 24.9137 54.3389 24.8858 54.609 24.797C54.8793 24.7081 55.1265 24.5607 55.333 24.3651C55.5396 24.1696 55.7004 23.9309 55.804 23.666C55.9075 23.4012 55.9513 23.1166 55.9321 22.8329V21.9546C55.5951 22.3631 55.1676 22.6874 54.6834 22.9019C54.1992 23.1163 53.6718 23.215 53.1428 23.19C51.8629 23.19 50.6355 22.6815 49.7305 21.7765C48.8255 20.8716 48.317 19.6441 48.317 18.3642C48.317 17.0843 48.8255 15.857 49.7305 14.9519C50.6355 14.0469 51.8629 13.5385 53.1428 13.5385C53.6718 13.5135 54.1992 13.6121 54.6834 13.8266C55.1676 14.041 55.5951 14.3653 55.9321 14.7739V13.8087L58.7214 13.7508ZM55.9321 18.3353C55.9513 17.8735 55.832 17.4165 55.5894 17.0231C55.3469 16.6298 54.9923 16.3179 54.571 16.1277C54.1498 15.9374 53.6814 15.8776 53.2259 15.9558C52.7704 16.034 52.3486 16.2466 52.015 16.5663C51.6813 16.8861 51.451 17.2984 51.3535 17.7502C51.256 18.202 51.2959 18.6725 51.4679 19.1014C51.6401 19.5303 51.9366 19.8979 52.3193 20.157C52.7021 20.416 53.1536 20.5547 53.6157 20.5551C53.9173 20.5768 54.2201 20.535 54.5044 20.4325C54.7888 20.3299 55.0487 20.1689 55.2669 19.9596C55.4852 19.7505 55.6572 19.4978 55.7717 19.218C55.8863 18.9382 55.9409 18.6375 55.9321 18.3353Z" fill="#443939"/>
<path d="M60.3524 18.5287C60.3524 17.5261 60.6499 16.5461 61.2071 15.7126C61.7643 14.8791 62.5562 14.2297 63.4826 13.8465C64.4091 13.4632 65.4284 13.3634 66.4116 13.5597C67.3948 13.7561 68.2976 14.2396 69.0059 14.9492C69.7141 15.6589 70.1959 16.5626 70.3903 17.5461C70.5848 18.5297 70.4831 19.5488 70.0981 20.4745C69.7131 21.4003 69.0621 22.1909 68.2276 22.7465C67.393 23.3022 66.4124 23.5977 65.4098 23.5958C64.7431 23.6022 64.0817 23.4755 63.4646 23.223C62.8475 22.9706 62.2869 22.5974 61.8159 22.1255C61.3448 21.6535 60.9728 21.0923 60.7214 20.4747C60.4702 19.8571 60.3447 19.1955 60.3524 18.5287ZM67.6104 18.5287C67.599 18.0958 67.46 17.6757 67.211 17.3213C66.962 16.967 66.6139 16.694 66.2103 16.5366C65.8068 16.3791 65.3658 16.3443 64.9426 16.4365C64.5194 16.5286 64.1328 16.7436 63.8311 17.0545C63.5295 17.3653 63.3264 17.7583 63.2472 18.1842C63.168 18.61 63.2161 19.0497 63.3857 19.4482C63.5553 19.8468 63.8388 20.1865 64.2006 20.4247C64.5623 20.6628 64.9863 20.7889 65.4195 20.7872C65.7142 20.793 66.0068 20.7379 66.2792 20.6253C66.5515 20.5129 66.7977 20.3454 67.0024 20.1335C67.2071 19.9215 67.3659 19.6695 67.4689 19.3935C67.5719 19.1174 67.6168 18.823 67.6007 18.5287H67.6104Z" fill="#443939"/>
<path d="M71.8087 11.194C71.8087 10.8543 71.9095 10.5221 72.0983 10.2396C72.287 9.95707 72.5554 9.73688 72.8692 9.60684C73.1832 9.47682 73.5286 9.4428 73.8619 9.50908C74.195 9.57537 74.5012 9.73899 74.7415 9.97926C74.9817 10.2195 75.1453 10.5257 75.2116 10.8588C75.2779 11.1921 75.2439 11.5375 75.1139 11.8515C74.9839 12.1654 74.7636 12.4337 74.4811 12.6225C74.1986 12.8113 73.8665 12.912 73.5267 12.912C73.0726 12.907 72.6386 12.7244 72.3174 12.4033C71.9963 12.0822 71.8137 11.6481 71.8087 11.194ZM72.0886 13.7517H74.9841V23.3067H72.0886V13.7517Z" fill="#443939"/>
<path d="M87.3767 18.5288C87.4091 19.1643 87.3156 19.7999 87.1014 20.3991C86.8873 20.9983 86.5568 21.5492 86.1289 22.0201C85.701 22.4911 85.1842 22.8727 84.6082 23.1431C84.0323 23.4135 83.4086 23.5674 82.7729 23.5959C82.2335 23.6318 81.6929 23.5454 81.1916 23.3432C80.6902 23.1409 80.241 22.8281 79.8774 22.428V27.1476H76.982V13.7513H79.8774V14.6489C80.2415 14.25 80.6911 13.9387 81.1925 13.7381C81.6939 13.5374 82.2342 13.4529 82.7729 13.4907C83.406 13.5192 84.0273 13.6722 84.6013 13.9408C85.1753 14.2094 85.6907 14.5885 86.1182 15.0563C86.5458 15.5241 86.8769 16.0715 87.0928 16.6674C87.3087 17.2632 87.4052 17.8957 87.3767 18.5288ZM84.4812 18.5288C84.4698 18.0805 84.3263 17.6456 84.0688 17.2786C83.8113 16.9115 83.4511 16.6285 83.0335 16.4653C82.6159 16.302 82.1594 16.2657 81.7211 16.3608C81.2829 16.4559 80.8826 16.6782 80.5701 16.9999C80.2577 17.3216 80.0472 17.7283 79.9651 18.1692C79.8829 18.61 79.9326 19.0653 80.108 19.4779C80.2835 19.8906 80.5768 20.2423 80.9513 20.4889C81.3257 20.7356 81.7647 20.8662 82.2131 20.8645C82.5202 20.8775 82.8267 20.8255 83.1122 20.7118C83.3979 20.5981 83.6563 20.4253 83.8705 20.2048C84.0846 19.9843 84.2497 19.7209 84.355 19.4321C84.4603 19.1432 84.5032 18.8354 84.4812 18.5288Z" fill="#443939"/>
<path d="M96.1884 20.4401C96.1884 22.6407 94.2581 23.5768 92.212 23.5768C91.3774 23.6519 90.5396 23.475 89.8067 23.069C89.0737 22.6629 88.4794 22.0464 88.1005 21.2991L90.5906 19.89C90.6892 20.2343 90.9031 20.5344 91.1965 20.74C91.4899 20.9456 91.845 21.0441 92.2024 21.0192C92.8876 21.0192 93.2351 20.8069 93.2351 20.4208C93.2351 19.3688 88.5348 19.9286 88.5348 16.6181C88.5348 14.5334 90.2914 13.491 92.2796 13.491C93.0353 13.4571 93.7862 13.6286 94.4522 13.9872C95.1184 14.3458 95.675 14.878 96.063 15.5275L93.5729 16.8401C93.4628 16.5911 93.2831 16.3793 93.0554 16.2303C92.8275 16.0813 92.5614 16.0015 92.2892 16.0004C91.7873 16.0004 91.4881 16.1934 91.4881 16.5312C91.4881 17.6315 96.1884 16.9077 96.1884 20.4401Z" fill="#443939"/>
<path d="M106.68 13.7515V23.3065H103.784V22.4089C103.455 22.8062 103.037 23.1206 102.565 23.3268C102.092 23.5331 101.578 23.6253 101.063 23.596C99.1322 23.596 97.4818 22.2158 97.4818 19.6389V13.7515H100.377V19.2046C100.354 19.4325 100.381 19.6627 100.456 19.8793C100.532 20.0958 100.652 20.2935 100.811 20.4587C100.97 20.6238 101.163 20.7526 101.376 20.8361C101.589 20.9195 101.818 20.9555 102.047 20.9418C103.089 20.9418 103.823 20.3241 103.823 19.0115V13.7515H106.68Z" fill="#443939"/>
<path d="M123.087 17.438V23.3061H120.192V17.6889C120.192 16.7238 119.738 16.1254 118.821 16.1254C117.904 16.1254 117.325 16.7914 117.325 17.9206V23.3061H114.43V17.6889C114.43 16.7238 113.976 16.1254 113.059 16.1254C112.142 16.1254 111.563 16.7914 111.563 17.9206V23.3061H108.668V13.7511H111.563V14.6294C111.864 14.2414 112.254 13.9341 112.703 13.7353C113.151 13.5365 113.642 13.4523 114.131 13.4905C114.62 13.465 115.108 13.5673 115.547 13.7872C115.985 14.0072 116.358 14.3374 116.63 14.7452C116.949 14.319 117.37 13.9804 117.854 13.7611C118.338 13.5416 118.871 13.4486 119.4 13.4905C121.659 13.4905 123.087 15.0541 123.087 17.438Z" fill="#443939"/>
<path d="M125.519 13.6932C126.692 13.6932 127.643 12.7425 127.643 11.5699C127.643 10.3972 126.692 9.44653 125.519 9.44653C124.347 9.44653 123.396 10.3972 123.396 11.5699C123.396 12.7425 124.347 13.6932 125.519 13.6932Z" fill="#443939"/>
</svg>
